 <svg id="mBank_mobile" xmlns="http://www.w3.org/2000/svg" xmlns:xlink="http://www.w3.org/1999/xlink" width="58" height="43" viewBox="0 0 58 43">
  <defs>
    <clipPath id="clip-path">
      <rect id="Rectangle_4568" data-name="Rectangle 4568" width="40.252" height="15.485" fill="none"/>
    </clipPath>
  </defs>
  <g id="Rectangle_4711" data-name="Rectangle 4711" fill="#f8f8f8" stroke="#eaeaea" stroke-width="1">
    <rect width="58" height="43" stroke="none"/>
    <rect x="0.5" y="0.5" width="57" height="42" fill="none"/>
  </g>
  <g id="Group_5746" data-name="Group 5746" transform="translate(9 14)">
    <rect id="Rectangle_4562" data-name="Rectangle 4562" width="11.324" height="15.485" transform="translate(0 0)" fill="#e41509"/>
    <rect id="Rectangle_4563" data-name="Rectangle 4563" width="9.092" height="15.485" transform="translate(12.964 0)" fill="#f39100"/>
    <rect id="Rectangle_4564" data-name="Rectangle 4564" width="6.438" height="15.485" transform="translate(21.947 0)" fill="#cc0915"/>
    <rect id="Rectangle_4565" data-name="Rectangle 4565" width="10.303" height="15.485" transform="translate(29.949 0)" fill="#20a134"/>
    <rect id="Rectangle_4566" data-name="Rectangle 4566" width="1.57" height="15.485" transform="translate(28.386 0)" fill="#0976bd"/>
    <rect id="Rectangle_4567" data-name="Rectangle 4567" width="1.642" height="15.485" transform="translate(11.322 0)" fill="#1f1a15"/>
    <g id="Group_5474" data-name="Group 5474" transform="translate(0 0)">
      <g id="Group_5473" data-name="Group 5473" transform="translate(0 0)" clip-path="url(#clip-path)">
        <path id="Path_2471" data-name="Path 2471" d="M32.335,23.678h.658a1.18,1.18,0,0,0,.855-.221.837.837,0,0,0,.21-.656.806.806,0,0,0-.229-.613,1.236,1.236,0,0,0-.877-.212h-.616Zm0,2.785h.8c.9,0,1.242-.255,1.242-.939a.861.861,0,0,0-.24-.686,1.437,1.437,0,0,0-.992-.243h-.814Zm-1.511,1.094v-5.58h-.636V20.893H33.2a2.649,2.649,0,0,1,1.866.477,1.58,1.58,0,0,1,.511,1.212,1.485,1.485,0,0,1-.772,1.361l-.033.018.036.01A1.549,1.549,0,0,1,35.975,25.6a1.689,1.689,0,0,1-.945,1.665,3.859,3.859,0,0,1-1.756.3Zm14.7,0V24.439a1.163,1.163,0,0,0-.161-.722.757.757,0,0,0-.632-.269.83.83,0,0,0-.685.311,1.382,1.382,0,0,0-.2.867v2.93H42.4V23.479h-.6V22.437h1.481l.238.615.017-.02a2,2,0,0,1,1.591-.689,1.907,1.907,0,0,1,1.409.5,1.874,1.874,0,0,1,.446,1.377v3.337Zm6.538.063a1.278,1.278,0,0,1-1.216-.756l-.929-1.56H49.48v2.253H48.032V21.4h-.605V20.361H49.48V24.22h.5l1.033-1.784h1.448L51.133,24.72l.992,1.643c.126.21.221.277.391.277a.693.693,0,0,0,.388-.13l.052-.038-.046.9-.011.008a1.439,1.439,0,0,1-.832.236m-22.969,0a1.057,1.057,0,0,1-.912-.368,1.436,1.436,0,0,1-.194-.832V24.439a1.126,1.126,0,0,0-.151-.722.754.754,0,0,0-.612-.269.816.816,0,0,0-.653.3,1.35,1.35,0,0,0-.2.857v2.951H24.925V24.439a1.123,1.123,0,0,0-.151-.722.753.753,0,0,0-.611-.269.814.814,0,0,0-.654.3,1.352,1.352,0,0,0-.2.857v2.951H21.859V23.479h-.605V22.437h1.481l.237.613.017-.022a1.939,1.939,0,0,1,1.571-.685,1.733,1.733,0,0,1,1.514.651l.011.016.013-.015a1.934,1.934,0,0,1,1.529-.652,1.763,1.763,0,0,1,1.516.649,2.042,2.042,0,0,1,.3,1.238v2.129c0,.249.112.282.221.282a.793.793,0,0,0,.378-.129l.053-.04-.046.873-.013.009a1.732,1.732,0,0,1-.935.266m9.764-2.568a.765.765,0,0,0-.856.824.719.719,0,0,0,.762.814.79.79,0,0,0,.582-.23.888.888,0,0,0,.2-.615v-.678l-.01,0a2.249,2.249,0,0,0-.679-.112m-.49,2.6a1.642,1.642,0,0,1-1.825-1.71c0-1.091.753-1.741,2.013-1.741a3.385,3.385,0,0,1,.971.148l.02.006v-.092a.945.945,0,0,0-.191-.7,1.065,1.065,0,0,0-.821-.261,3.365,3.365,0,0,0-1.5.372L37,23.7V22.688l.019-.008a4.3,4.3,0,0,1,1.744-.337,2.5,2.5,0,0,1,1.784.54A1.682,1.682,0,0,1,41,24.2v2.159c0,.2.061.282.209.282a.839.839,0,0,0,.389-.129l.053-.04-.058.874-.012.008a1.734,1.734,0,0,1-.946.267.915.915,0,0,1-.9-.479l-.01-.022-.016.017a1.8,1.8,0,0,1-1.34.514" transform="translate(-16.976 -16.263)" fill="#fff"/>
      </g>
    </g>
  </g>
</svg>
