<svg id="Rakieta" xmlns="http://www.w3.org/2000/svg" xmlns:xlink="http://www.w3.org/1999/xlink" width="715.241" height="262.48" viewBox="0 0 715.241 262.48">
  <defs>
    <linearGradient id="linear-gradient" x1="-3.979" y1="2.72" x2="-3.977" y2="2.72" gradientUnits="objectBoundingBox">
      <stop offset="0" stop-color="#2569f4"/>
      <stop offset="0.004" stop-color="#2569f4"/>
      <stop offset="1" stop-color="#9571f6"/>
    </linearGradient>
    <clipPath id="clip-path">
      <rect id="Rectangle_4686" data-name="Rectangle 4686" width="715.241" height="262.48" fill="#f8f8f8"/>
    </clipPath>
    <clipPath id="clip-path-2">
      <rect id="Rectangle_4597" data-name="Rectangle 4597" width="90.681" height="87.025" fill="none"/>
    </clipPath>
    <clipPath id="clip-path-3">
      <rect id="Rectangle_4598" data-name="Rectangle 4598" width="13.492" height="20.094" fill="none"/>
    </clipPath>
    <clipPath id="clip-path-4">
      <rect id="Rectangle_4599" data-name="Rectangle 4599" width="19.965" height="20.433" fill="none"/>
    </clipPath>
    <clipPath id="clip-path-5">
      <rect id="Rectangle_4600" data-name="Rectangle 4600" width="22.007" height="15.025" fill="none"/>
    </clipPath>
    <clipPath id="clip-path-6">
      <rect id="Rectangle_4601" data-name="Rectangle 4601" width="21.425" height="14.712" fill="none"/>
    </clipPath>
    <clipPath id="clip-path-7">
      <path id="Path_2508" data-name="Path 2508" d="M1520.767,1452.11l-5.561,18.145a13.11,13.11,0,0,0,1.264,10.539l11.779,19.82a4.68,4.68,0,0,0,8.125-.133c18.642-34.091.523-57.075.523-57.075Z" transform="translate(-1514.63 -1443.406)" fill="none"/>
    </clipPath>
    <linearGradient id="linear-gradient-4" x1="-1.493" y1="1.627" x2="-1.491" y2="1.627" gradientUnits="objectBoundingBox">
      <stop offset="0" stop-color="#444b8c"/>
      <stop offset="0.996" stop-color="#26264f"/>
      <stop offset="1" stop-color="#26264f"/>
    </linearGradient>
    <clipPath id="clip-path-8">
      <path id="Path_2509" data-name="Path 2509" d="M567.179,940.6a4.68,4.68,0,0,0,.776,8.089l21.013,9.489a13.109,13.109,0,0,0,10.614.078l17.409-7.555,6.847-17s-8.371-5.2-21.609-5.2c-9.578,0-21.7,2.72-35.05,12.1" transform="translate(-565.198 -928.508)" fill="none"/>
    </clipPath>
    <linearGradient id="linear-gradient-5" x1="-0.692" y1="2.589" x2="-0.69" y2="2.589" xlink:href="#linear-gradient-4"/>
    <clipPath id="clip-path-9">
      <path id="Path_2510" data-name="Path 2510" d="M1545.967,1423.915l-5.562,18.145a13.109,13.109,0,0,0,1.264,10.539l11.779,19.821a4.68,4.68,0,0,0,8.125-.134c18.642-34.09.523-57.075.523-57.075Z" transform="translate(-1539.83 -1415.211)" fill="none"/>
    </clipPath>
    <linearGradient id="linear-gradient-6" x1="-1.521" y1="1.66" x2="-1.52" y2="1.66" gradientUnits="objectBoundingBox">
      <stop offset="0" stop-color="#2569f4"/>
      <stop offset="0.996" stop-color="#6165d7"/>
      <stop offset="1" stop-color="#6165d7"/>
    </linearGradient>
    <clipPath id="clip-path-10">
      <path id="Path_2511" data-name="Path 2511" d="M592.379,912.412a4.68,4.68,0,0,0,.776,8.089l10.705,4.834,10.308,4.655a13.11,13.11,0,0,0,10.614.078l17.409-7.555,6.847-17s-8.371-5.2-21.609-5.2c-9.578,0-21.7,2.72-35.05,12.1" transform="translate(-590.398 -900.315)" fill="none"/>
    </clipPath>
    <linearGradient id="linear-gradient-7" x1="-0.665" y1="3.414" x2="-0.664" y2="3.414" xlink:href="#linear-gradient-6"/>
    <clipPath id="clip-path-11">
      <path id="Path_2512" data-name="Path 2512" d="M1108.425,123.966c-26.254,23.531-40.525,68.255-43.037,76.676-.266.891-.629,2.337.235,2.679,15.615,6.184,28.286,16.929,37.243,33.271.461.84,1.886.339,2.767-.036,8.2-3.488,50.928-22.652,71.34-51.32,22.5-31.605,4.978-74.47,4.919-74.485a100.336,100.336,0,0,0-25.4-3.126c-14.837,0-33.456,3.244-48.069,16.342" transform="translate(-1065.08 -107.624)" fill="none"/>
    </clipPath>
    <linearGradient id="linear-gradient-8" x1="-0.613" y1="1.652" x2="-0.612" y2="1.652" gradientUnits="objectBoundingBox">
      <stop offset="0" stop-color="#ffc444"/>
      <stop offset="0.996" stop-color="#f36f56"/>
      <stop offset="1" stop-color="#f36f56"/>
    </linearGradient>
    <clipPath id="clip-path-12">
      <rect id="Rectangle_4610" data-name="Rectangle 4610" width="228.324" height="227.96" fill="none"/>
    </clipPath>
    <clipPath id="clip-path-13">
      <rect id="Rectangle_4609" data-name="Rectangle 4609" width="101.902" height="115.577" fill="none"/>
    </clipPath>
    <clipPath id="clip-path-14">
      <path id="Path_2513" data-name="Path 2513" d="M1364.286,321.965c16.161-14.366,30.092-7.251,45.615-19.683,5.668-4.54,12.021-12.064,16.139-25.473,3.7,14.746,7.251,41.938-8.288,63.763-20.411,28.668-63.142,47.832-71.339,51.32-.882.375-2.307.876-2.767.036a74.873,74.873,0,0,0-16.321-20.613,49.623,49.623,0,0,0,13.544-10.086c13.15-13.949,8.693-26.174,23.418-39.263" transform="translate(-1327.325 -276.809)" fill="none"/>
    </clipPath>
    <linearGradient id="linear-gradient-9" x1="-0.977" y1="1.737" x2="-0.976" y2="1.737" xlink:href="#linear-gradient-8"/>
    <clipPath id="clip-path-15">
      <path id="Path_2514" data-name="Path 2514" d="M1841.752,112.1c11.423,3.053,23.9,11.352,33.9,20.293s20.387,21.595,23.956,31.422c5.411-23.14-2.027-46.1-4.106-51.744a2.678,2.678,0,0,0-1.875-1.675,105.279,105.279,0,0,0-24.034-2.763,83.546,83.546,0,0,0-27.845,4.467" transform="translate(-1841.752 -107.637)" fill="none"/>
    </clipPath>
    <linearGradient id="linear-gradient-10" x1="-1.67" y1="2.758" x2="-1.669" y2="2.758" xlink:href="#linear-gradient-6"/>
    <clipPath id="clip-path-17">
      <rect id="Rectangle_4613" data-name="Rectangle 4613" width="15.251" height="42.334" fill="none"/>
    </clipPath>
    <clipPath id="clip-path-18">
      <path id="Path_2515" data-name="Path 2515" d="M2398,276.821c.018.069.035.138.052.207q.044.177.087.355c.03.119.058.239.087.359s.056.229.083.344.061.256.091.386c.026.111.052.222.078.334.031.137.063.274.094.413.025.108.049.215.074.324.032.145.065.291.1.438.023.1.046.209.069.314.033.154.067.309.1.465.021.1.043.2.064.3q.051.243.1.489.03.148.06.3.051.253.1.509c.019.1.038.193.057.29.034.176.068.354.1.533q.026.14.052.281.052.276.1.555c.017.091.033.182.049.274.034.191.067.383.1.577q.022.132.045.264l.1.6c.014.086.028.172.042.259q.05.307.1.617c.013.084.026.168.039.253q.048.316.1.634c.012.082.024.165.036.248q.047.325.093.654.016.12.032.24.046.335.089.673c.01.077.021.155.03.233q.043.344.085.691l.027.227q.042.353.081.71c.008.072.015.144.023.215q.04.364.077.73c.007.069.013.139.02.208q.037.372.072.747c.007.068.012.135.018.2q.035.379.065.761c.005.066.01.133.016.2q.031.387.059.777c0,.063.009.127.012.19.019.264.036.528.053.794,0,.061.007.123.01.184.016.269.032.539.045.81,0,.058.005.116.009.174.012.275.026.55.037.827,0,.056,0,.112.006.167q.016.42.028.843c0,.052,0,.105,0,.157q.011.428.019.86c0,.05,0,.1,0,.149q.007.436.01.875c0,.046,0,.093,0,.14q0,.444,0,.891c0,.044,0,.089,0,.134q0,.451-.01.9c0,.04,0,.081,0,.121-.006.307-.012.615-.022.923,0,.036,0,.072,0,.109-.01.313-.021.626-.034.94,0,.033,0,.065,0,.1q-.02.478-.046.958c0,.027,0,.054-.005.081q-.027.488-.06.979c0,.022,0,.043,0,.065q-.034.5-.075,1c0,.016,0,.032,0,.048q-.041.51-.09,1.022c0,.008,0,.016,0,.024a72.735,72.735,0,0,1-1.569,9.684c-2.281-6.281-7.347-13.715-13.317-20.6,4.459-4.668,8.917-11.479,12.067-21.736" transform="translate(-2385.935 -276.821)" fill="none"/>
    </clipPath>
    <linearGradient id="linear-gradient-11" x1="-11.772" y1="4.804" x2="-11.767" y2="4.804" gradientUnits="objectBoundingBox">
      <stop offset="0" stop-color="#aa80f9"/>
      <stop offset="0.996" stop-color="#6165d7"/>
      <stop offset="1" stop-color="#6165d7"/>
    </linearGradient>
    <clipPath id="clip-path-19">
      <path id="Path_2516" data-name="Path 2516" d="M1554.4,440.3c-10.37,11.6-8.333,30.341,4.549,41.855s31.731,11.443,42.1-.158,8.333-30.341-4.55-41.855a33.016,33.016,0,0,0-21.88-8.589A26.774,26.774,0,0,0,1554.4,440.3" transform="translate(-1547.784 -431.556)" fill="none"/>
    </clipPath>
    <linearGradient id="linear-gradient-12" x1="-1.217" y1="2.263" x2="-1.216" y2="2.263" gradientUnits="objectBoundingBox">
      <stop offset="0" stop-color="#ebeff2"/>
      <stop offset="0.004" stop-color="#ebeff2"/>
      <stop offset="1" stop-color="#fff"/>
    </linearGradient>
    <clipPath id="clip-path-21">
      <rect id="Rectangle_4617" data-name="Rectangle 4617" width="51.66" height="41.254" fill="none"/>
    </clipPath>
    <clipPath id="clip-path-22">
      <path id="Path_2517" data-name="Path 2517" d="M1658.992,665.257c13.188-11.723,24.89-9.143,37.185-14.552,5.762,10.756,5.047,23.692-2.832,32.507-10.369,11.6-29.219,11.672-42.1.158a35,35,0,0,1-2.941-2.963,39.191,39.191,0,0,1,10.689-15.149" transform="translate(-1648.303 -650.705)" fill="none"/>
    </clipPath>
    <linearGradient id="linear-gradient-13" x1="-1.855" y1="2.698" x2="-1.854" y2="2.698" xlink:href="#linear-gradient-12"/>
    <clipPath id="clip-path-23">
      <path id="Path_2518" data-name="Path 2518" d="M1584.356,469.723c-9.505,10.634-7.638,27.811,4.17,38.365s29.085,10.489,38.59-.145,7.638-27.811-4.17-38.365a30.264,30.264,0,0,0-20.055-7.873,24.542,24.542,0,0,0-18.535,8.018" transform="translate(-1578.289 -461.705)" fill="none"/>
    </clipPath>
    <linearGradient id="linear-gradient-14" x1="-1.686" y1="2.657" x2="-1.685" y2="2.657" xlink:href="#linear-gradient-12"/>
    <clipPath id="clip-path-24">
      <path id="Path_2519" data-name="Path 2519" d="M1626.8,511.411c-8.28,9.263-6.654,24.226,3.633,33.42s25.336,9.137,33.616-.126,6.653-24.226-3.633-33.42a26.363,26.363,0,0,0-17.47-6.859,21.377,21.377,0,0,0-16.146,6.985" transform="translate(-1621.512 -504.426)" fill="none"/>
    </clipPath>
    <linearGradient id="linear-gradient-15" x1="-2.293" y1="3.21" x2="-2.291" y2="3.21" xlink:href="#linear-gradient-4"/>
    <clipPath id="clip-path-25">
      <path id="Path_2520" data-name="Path 2520" d="M1053.31,1257.955c-2.829,3.166,3.562,13.495,14.276,23.071s21.693,14.773,24.522,11.607-3.562-13.494-14.276-23.07c-8.585-7.674-17.341-12.535-21.937-12.535a3.32,3.32,0,0,0-2.585.927" transform="translate(-1052.64 -1257.027)" fill="none"/>
    </clipPath>
    <linearGradient id="linear-gradient-16" x1="-1.338" y1="2.295" x2="-1.336" y2="2.295" xlink:href="#linear-gradient-8"/>
    <clipPath id="clip-path-26">
      <path id="Path_2521" data-name="Path 2521" d="M1006.076,1357.429l-5.062,2.483a2.925,2.925,0,0,0-.661,4.806l27.61,24.678a2.924,2.924,0,0,0,4.7-1.194l1.9-5.307a14.594,14.594,0,0,0-4.013-15.8l-8.326-7.442a14.593,14.593,0,0,0-16.152-2.221" transform="translate(-999.377 -1355.937)" fill="none"/>
    </clipPath>
    <linearGradient id="linear-gradient-17" x1="-1.457" y1="2.438" x2="-1.456" y2="2.438" xlink:href="#linear-gradient-6"/>
    <clipPath id="clip-path-27">
      <path id="Path_2522" data-name="Path 2522" d="M988.333,1414.434c-2.67,2.987,2.333,11.815,11.175,19.718s18.174,11.888,20.844,8.9-2.334-11.815-11.175-19.718c-6.849-6.122-13.993-9.893-18.106-9.893a3.517,3.517,0,0,0-2.738.992" transform="translate(-987.615 -1413.442)" fill="none"/>
    </clipPath>
    <linearGradient id="linear-gradient-18" x1="-1.68" y1="2.532" x2="-1.678" y2="2.532" xlink:href="#linear-gradient-11"/>
    <clipPath id="clip-path-28">
      <path id="Path_2523" data-name="Path 2523" d="M1037.21,1459.064c-2.029,2.27,1.774,8.98,8.493,14.986s13.812,9.035,15.841,6.765-1.773-8.98-8.493-14.986c-5.206-4.653-10.635-7.519-13.761-7.519a2.674,2.674,0,0,0-2.081.754" transform="translate(-1036.664 -1458.31)" fill="none"/>
    </clipPath>
    <linearGradient id="linear-gradient-19" x1="-2.368" y1="3.18" x2="-2.366" y2="3.18" xlink:href="#linear-gradient-4"/>
    <clipPath id="clip-path-30">
      <rect id="Rectangle_4626" data-name="Rectangle 4626" width="42.85" height="33.325" fill="none"/>
    </clipPath>
    <clipPath id="clip-path-31">
      <path id="Path_2524" data-name="Path 2524" d="M1690.12,687.3c11.216-9.971,21.358-9.6,31.7-12.587,4.826,8.663,4.334,19.2-2.051,26.34-8.28,9.263-23.33,9.32-33.616.126a27.671,27.671,0,0,1-3.95-4.366,38.869,38.869,0,0,1,7.914-9.513" transform="translate(-1682.206 -674.712)" fill="none"/>
    </clipPath>
    <linearGradient id="linear-gradient-20" x1="-3.394" y1="3.684" x2="-3.392" y2="3.684" xlink:href="#linear-gradient-4"/>
    <clipPath id="clip-path-32">
      <path id="Path_2526" data-name="Path 2526" d="M115.4,1538.452c-2.946,3.841-5.571,6.837-5.793,7.107-19.576,23.8-46.378,37.545-46.378,37.545-21.069,10.8-33.52,9.656-33.875,15.044-.349,5.3,11.27,12.835,22.928,13.484,33.362,1.858,66.737-74.89,65.443-76.055a.047.047,0,0,0-.033-.013c-.177,0-.709.823-2.292,2.888" transform="translate(-29.342 -1535.564)" fill="none"/>
    </clipPath>
    <linearGradient id="linear-gradient-21" x1="0.199" y1="0.846" x2="0.2" y2="0.846" xlink:href="#linear-gradient-8"/>
    <clipPath id="clip-path-33">
      <path id="Path_2527" data-name="Path 2527" d="M261.912,1546.369a48.281,48.281,0,0,1-16.815,1.894c-9.716-.647-13.449-3.866-18.717-1.123-5.505,2.867-3.522,7.472-9.743,13.18-7.694,7.06-15.24,4.158-18.73,10.694-1.714,3.21-2.143,8.12.154,10.43,3.515,3.535,12.253-.394,26.9-6.055a131.881,131.881,0,0,0,17.6-8.3c13.67-7.781,28.94-19.535,27.441-22.31a.919.919,0,0,0-.9-.412c-1.264,0-3.682,1-7.181,2" transform="translate(-196.478 -1544.369)" fill="none"/>
    </clipPath>
    <linearGradient id="linear-gradient-22" x1="-0.169" y1="1.464" x2="-0.168" y2="1.464" xlink:href="#linear-gradient-8"/>
    <clipPath id="clip-path-34">
      <path id="Path_2528" data-name="Path 2528" d="M786.135,1657.734c-2.784,7.088-2.019,10.733-6.5,16.664-4.42,5.845-8.774,7.081-10.886,13.325-.471,1.392-2.535,7.5.154,10.429,4.553,4.964,21.836-.14,31.722-11.1,1.943-2.154,9.462-10.493,8.013-19.859-.709-4.581-3-5.79-4.87-11-1.94-5.412-2.362-12.2.246-20.792-10.776,8.223-15.531,16.361-17.877,22.333" transform="translate(-767.545 -1635.401)" fill="none"/>
    </clipPath>
    <linearGradient id="linear-gradient-23" x1="-0.541" y1="1.283" x2="-0.54" y2="1.283" xlink:href="#linear-gradient-8"/>
    <clipPath id="clip-path-35">
      <path id="Path_2529" data-name="Path 2529" d="M2281.63,1620.909c-.317.407-.139.7-.393,1.347a3.06,3.06,0,0,1-.959,1.265l.785.7a3.414,3.414,0,0,1,1.134-1.439,6.687,6.687,0,0,0,.828-.523c.446-.391,1-1.126.752-1.55a.723.723,0,0,0-.355-.281,1.285,1.285,0,0,0-.523-.1,1.659,1.659,0,0,0-1.269.589" transform="translate(-2280.278 -1620.32)" fill="none"/>
    </clipPath>
    <linearGradient id="linear-gradient-24" x1="-42.781" y1="21.362" x2="-42.762" y2="21.362" xlink:href="#linear-gradient-8"/>
    <clipPath id="clip-path-36">
      <path id="Path_2530" data-name="Path 2530" d="M2455.373,1591.243a.726.726,0,0,0-.217.4c-.066.489.734.948,1.3,1.134a6.667,6.667,0,0,0,.967.159,3.418,3.418,0,0,1,1.606.883l.451-.949a3.066,3.066,0,0,1-1.377-.79c-.487-.5-.436-.836-.887-1.087a1.617,1.617,0,0,0-1.839.252" transform="translate(-2455.152 -1590.812)" fill="none"/>
    </clipPath>
    <linearGradient id="linear-gradient-25" x1="-40.464" y1="24.997" x2="-40.448" y2="24.997" xlink:href="#linear-gradient-8"/>
    <clipPath id="clip-path-37">
      <path id="Path_2531" data-name="Path 2531" d="M2419.544,1605.584a2.064,2.064,0,0,0-1.113,1.34c-.248,1.179,1.026,2.227,1.945,3.257,1.844,2.065,3.773,5.749,3.065,8.911a6.874,6.874,0,0,1-3.38,4.48c-1.886.953-3.015.086-4.976,1.217-.145.084-2.625,1.554-2.7,3.538-.088,2.448,3.51,5.052,6.592,5.252,5.634.365,12.424-7.129,12.107-14.564-.318-7.49-7.789-13.551-10.886-13.551a1.645,1.645,0,0,0-.658.121" transform="translate(-2412.388 -1605.463)" fill="none"/>
    </clipPath>
    <linearGradient id="linear-gradient-26" x1="-8.861" y1="3.208" x2="-8.858" y2="3.208" gradientUnits="objectBoundingBox">
      <stop offset="0" stop-color="#ff9085"/>
      <stop offset="1" stop-color="#fb6fbb"/>
    </linearGradient>
    <clipPath id="clip-path-38">
      <path id="Path_2532" data-name="Path 2532" d="M2453.319,2646.8l-.2,2.05.955-.173.642-1.927Z" transform="translate(-2453.117 -2646.748)" fill="none"/>
    </clipPath>
    <linearGradient id="linear-gradient-27" x1="-120.217" y1="5.266" x2="-120.168" y2="5.266" xlink:href="#linear-gradient-8"/>
    <clipPath id="clip-path-39">
      <path id="Path_2533" data-name="Path 2533" d="M2410.081,2187.519q1.354,10.52,2.708,21.04c.279,4.662.629,9.05.908,13.712.759.154,1.48.312,1.951-.1a29.434,29.434,0,0,0,1.332-3.227,28.353,28.353,0,0,0,1.635-10.784c-.243-4.655-1.571-5.244-1.178-9.363a42.108,42.108,0,0,1,1.1-5.1,51.632,51.632,0,0,0,1.092-9.3l-9.545,3.125" transform="translate(-2410.081 -2184.394)" fill="none"/>
    </clipPath>
    <linearGradient id="linear-gradient-28" x1="-15.597" y1="1.275" x2="-15.59" y2="1.275" gradientUnits="objectBoundingBox">
      <stop offset="0" stop-color="#311944"/>
      <stop offset="1" stop-color="#893976"/>
    </linearGradient>
    <clipPath id="clip-path-41">
      <rect id="Rectangle_4636" data-name="Rectangle 4636" width="9.545" height="38.039" fill="none"/>
    </clipPath>
    <clipPath id="clip-path-42">
      <path id="Path_2534" data-name="Path 2534" d="M2413.7,2222.27c-.28-4.662-.629-9.05-.908-13.712q-1.354-10.52-2.708-21.04l9.545-3.125c-.007.241-.019.474-.029.71-4.464,3.876-5.337,6.948-5.293,9.042.052,2.541,1.442,3.8,1.171,7.484-.194,2.633-.986,3.1-.986,5.473,0,3.061,1.314,4.781,1.954,6.549.618,1.709.838,4.129-.356,7.573-.156.355-.3.674-.437.947-.471.41-1.192.253-1.951.1" transform="translate(-2410.081 -2184.394)" fill="none"/>
    </clipPath>
    <linearGradient id="linear-gradient-29" x1="-15.597" y1="1.275" x2="-15.59" y2="1.275" xlink:href="#linear-gradient-28"/>
    <clipPath id="clip-path-43">
      <path id="Path_2535" data-name="Path 2535" d="M2432.193,2659.832c-.708.482-.5,1.208-1.166,1.538a1.825,1.825,0,0,0-.572.357c-.095.093-.329.322-.269.475.068.177.5.162.9.148a1.765,1.765,0,0,0,.96-.177c.32-.209.219-.414.568-.847.452-.561.867-.52.942-.9a.774.774,0,0,0-.408-.792.611.611,0,0,0-.267-.058,1.333,1.333,0,0,0-.688.256" transform="translate(-2430.176 -2659.576)" fill="none"/>
    </clipPath>
    <linearGradient id="linear-gradient-30" x1="-55.155" y1="2.667" x2="-55.133" y2="2.667" xlink:href="#linear-gradient-26"/>
    <clipPath id="clip-path-44">
      <path id="Path_2536" data-name="Path 2536" d="M2448.229,2454.729l1.786.7.52-.819-1.4-.939Z" transform="translate(-2448.229 -2453.67)" fill="none"/>
    </clipPath>
    <linearGradient id="linear-gradient-31" x1="-70.547" y1="9.566" x2="-70.518" y2="9.566" xlink:href="#linear-gradient-8"/>
    <clipPath id="clip-path-45">
      <path id="Path_2537" data-name="Path 2537" d="M2464.985,2461.108c-.4.161-.484.712-.5.836-.125.846.55,1.184.339,1.9a1.812,1.812,0,0,0-.126.662c0,.132.013.459.166.52.177.07.455-.254.719-.561.317-.37.476-.554.522-.826.063-.377-.156-.442-.237-.992-.1-.712.207-.989-.022-1.3a.763.763,0,0,0-.607-.283.682.682,0,0,0-.252.046" transform="translate(-2464.467 -2461.062)" fill="none"/>
    </clipPath>
    <linearGradient id="linear-gradient-32" x1="-54.378" y1="6.1" x2="-54.356" y2="6.1" xlink:href="#linear-gradient-26"/>
    <clipPath id="clip-path-46">
      <path id="Path_2538" data-name="Path 2538" d="M2292.3,2160.98c-.275,2.375-.249,3.845.436,5.321,2.45,5.284,11,5.633,12.3,5.67l1.281-2.626a13.129,13.129,0,0,0-4.509-4.963c-1.808-1.136-2.515-.894-2.966-1.657-1.811-3.065,7.964-9.7,6.5-14.122-.5-1.529-2.449-3.079-8.161-3.76a49.324,49.324,0,0,0-4.885,16.137" transform="translate(-2292.137 -2144.843)" fill="none"/>
    </clipPath>
    <linearGradient id="linear-gradient-33" x1="-6.518" y1="2.928" x2="-6.515" y2="2.928" xlink:href="#linear-gradient-28"/>
    <clipPath id="clip-path-47">
      <path id="Path_2539" data-name="Path 2539" d="M2348.586,1844.236c-3.6.618-6.333,1.261-7.556,3.144-1.29,1.989.762,3.487,1.32,7.851.854,6.681-2.988,9.178-1.882,15.9a17.016,17.016,0,0,0,.749,2.91,6.88,6.88,0,0,0,2.841,3.531,17.816,17.816,0,0,0,3.6,1.739,15.582,15.582,0,0,0,6.267.762c1.136-.021,2.433-.043,4.083.052,8.024.458,9.225,2.786,12.85,1.355,3.664-1.446,6.316-5.354,5.539-7.024-.465-1-1.934-.376-4.039-1.6-2.713-1.583-2.257-3.743-4.459-5.6a6.23,6.23,0,0,0-4.776-1.269c-1.44.05-2.825.1-4.132-1.019-2.736-2.341-3.062-8.034-1.9-11.423.759-2.213.774-4.62,1.337-6.892a1.461,1.461,0,0,0-.034-.831c-.448-1.305-2.837-1.556-4.642-1.728-.74-.071-1.435-.1-2.06-.1a19.121,19.121,0,0,0-3.1.233" transform="translate(-2340.267 -1844.003)" fill="none"/>
    </clipPath>
    <linearGradient id="linear-gradient-34" x1="-4.28" y1="1.787" x2="-4.278" y2="1.787" xlink:href="#linear-gradient-26"/>
    <clipPath id="clip-path-49">
      <rect id="Rectangle_4644" data-name="Rectangle 4644" width="35.738" height="19.285" fill="none"/>
    </clipPath>
    <clipPath id="clip-path-50">
      <path id="Path_2540" data-name="Path 2540" d="M2370.436,2088.217c-1.111-.741-.509-2.839-2.155-3.953-1.527-1.034-2.718.318-4.969-.372-2.886-.885-2.736-3.664-5.5-4.551-1.99-.638-2.589.633-5.458.687a11.408,11.408,0,0,1-9-4.164,10.209,10.209,0,0,1-1.882-3.939c-.766,2.474-1.6,4.866-1,8.477a17.23,17.23,0,0,0,1.045,3.691,5.121,5.121,0,0,0,1.815,2.267,17.989,17.989,0,0,0,4.328,2.221c3.646,1.275,5.445.534,10.35.814,8.024.459,9.225,2.786,12.85,1.355a10.4,10.4,0,0,0,5.149-4.561c-3.171,2.307-4.763,2.565-5.569,2.028" transform="translate(-2340.267 -2071.925)" fill="none"/>
    </clipPath>
    <linearGradient id="linear-gradient-35" x1="-4.61" y1="1.763" x2="-4.608" y2="1.763" xlink:href="#linear-gradient-26"/>
    <clipPath id="clip-path-51">
      <path id="Path_2541" data-name="Path 2541" d="M2399.274,1773.992c-.062,1.3,1.41,1.21,1.41,1.21l-.055.823a1.784,1.784,0,0,1-1.164,1.556l-.582.213s3.794.813,5.865-.651l-.6-.058a1.784,1.784,0,0,1-1.6-1.6l-.036-.353s.658-4.068-2.187-4.311a9.758,9.758,0,0,0-1.053,3.165" transform="translate(-2398.883 -1770.826)" fill="none"/>
    </clipPath>
    <linearGradient id="linear-gradient-36" x1="-21.164" y1="8.633" x2="-21.155" y2="8.633" xlink:href="#linear-gradient-8"/>
    <clipPath id="clip-path-52">
      <path id="Path_2542" data-name="Path 2542" d="M2190.683,1667.936c1.747,7.235,10.34,12.565,15.656,10.661,2.906-1.042,5.648-4.537,4.887-6.866-.616-1.888-3.406-2.617-3.568-2.657a5.228,5.228,0,0,0-2.71.068,5.348,5.348,0,0,1-2.409.134,6.872,6.872,0,0,1-4.484-3.374c-1.553-2.844-.714-6.918.488-9.411.6-1.243,1.535-2.6.972-3.666a2.065,2.065,0,0,0-1.439-.981,1.315,1.315,0,0,0-.169-.011c-2.8,0-9.087,8.388-7.224,16.1" transform="translate(-2190.344 -1651.832)" fill="none"/>
    </clipPath>
    <linearGradient id="linear-gradient-37" x1="-6.341" y1="2.938" x2="-6.338" y2="2.938" xlink:href="#linear-gradient-26"/>
    <clipPath id="clip-path-53">
      <path id="Path_2543" data-name="Path 2543" d="M2406.566,1736.8c-.588,1.282.667,3.39,1.268,3.341.2-.016.358-.265.492-.191s.126.44,0,.694a.923.923,0,0,1-.355.381,2.415,2.415,0,0,1,.424.962,3.33,3.33,0,0,1-.532,2.145c-.94,2,.522,5.164,2.126,6.761,1.3,1.3,1.912.776,2.691,1.837,1.515,2.064-.576,4.332.208,7.11,1.191,4.224,7.861,5.481,8.137,5.529.109.019.182.031.3.049,2.992.475,7.527,1.2,10.72-1.26a9.314,9.314,0,0,0,3.3-7.852,9.1,9.1,0,0,0-2.563-5.849,8.3,8.3,0,0,0-5.428-2.542,5.554,5.554,0,0,0-1.361.151,2.835,2.835,0,0,1-1.67.042,6.321,6.321,0,0,1-3.225-2.837c-1.135-1.674-.673-2.032-1.489-2.855-1.6-1.613-3.476-.346-5.184-1.77-1.684-1.4-.668-3.307-2.293-4.522a4.216,4.216,0,0,0-2.493-.733c-1.35,0-2.665.515-3.075,1.409" transform="translate(-2406.413 -1735.392)" fill="none"/>
    </clipPath>
    <linearGradient id="linear-gradient-38" x1="-4.714" y1="2.204" x2="-4.712" y2="2.204" xlink:href="#linear-gradient-4"/>
    <clipPath id="clip-path-54">
      <path id="Path_2544" data-name="Path 2544" d="M1791.29,1557.011c.941,1.023.156,1.125,0,1.454a2.157,2.157,0,0,0,.857,1.933c.675.422.929,2.723.929,2.723l1.266-.528s-.76-3.967-1.519-5.149a6.714,6.714,0,0,0-2.177-1.942s-.3.486.645,1.509" transform="translate(-1790.601 -1555.502)" fill="none"/>
    </clipPath>
    <linearGradient id="linear-gradient-39" x1="-21.645" y1="11.788" x2="-21.632" y2="11.788" xlink:href="#linear-gradient-8"/>
    <clipPath id="clip-path-55">
      <path id="Path_2545" data-name="Path 2545" d="M1809.485,1631.2a28.561,28.561,0,0,0,4.221,15.025,29.9,29.9,0,0,0,8.948,8.948c2.969,2.118,4.718,3.326,6.457,2.764,2.1-.68,1.743-3.143,5.571-7.724,1.314-1.573,2.136-2.214,1.9-2.806-.245-.614-1.324-.573-2.89-.531a19.358,19.358,0,0,1-5.635-.482c-2.921-.773-4.7-2.314-7.451-4.7a38.573,38.573,0,0,1-8.671-10.915l-2.448.422" transform="translate(-1809.485 -1630.783)" fill="url(#linear-gradient)"/>
    </clipPath>
    <clipPath id="clip-path-56">
      <path id="Path_2546" data-name="Path 2546" d="M2117.465,1841.161c-1.278,1.4-.935,3.543-.87,4.522.087,1.309,1.286,2.616.938,4.74a2.742,2.742,0,0,1-.793,1.806,2.781,2.781,0,0,1-2.135.4,6.677,6.677,0,0,0-2.095.115,5.412,5.412,0,0,0-3.131,1.7l-.831,2.207a6.433,6.433,0,0,0,1.341,2.547c3.153,3.593,11.1,3.7,15.222-.6,3.679-3.833,2.707-9.258,2.606-9.768-1.243-6.314-7.293-8.72-7.69-8.87a4.126,4.126,0,0,0-2.562,1.2" transform="translate(-2108.548 -1839.956)" fill="url(#linear-gradient)"/>
    </clipPath>
    <clipPath id="clip-path-57">
      <path id="Path_2547" data-name="Path 2547" d="M2277.572,2694.307c-.071.386,1.39,1.049,2.236,1.04.255,0-.011-.155.054-.24.178-.237-.034-.761-.342-1.02a1.3,1.3,0,0,0-.835-.261c-.538,0-1.067.233-1.112.482" transform="translate(-2277.57 -2693.825)" fill="none"/>
    </clipPath>
    <linearGradient id="linear-gradient-42" x1="-69.163" y1="2.747" x2="-69.133" y2="2.747" xlink:href="#linear-gradient-4"/>
    <clipPath id="clip-path-58">
      <path id="Path_2548" data-name="Path 2548" d="M2286.719,2662.7s.156.63.423,1.558a6.155,6.155,0,0,1,.146,1.332l1.291-.182c-.6-.72-.488-3.014-.488-3.014Z" transform="translate(-2286.719 -2662.395)" fill="none"/>
    </clipPath>
    <linearGradient id="linear-gradient-43" x1="-81.658" y1="2.965" x2="-81.622" y2="2.965" xlink:href="#linear-gradient-8"/>
    <clipPath id="clip-path-59">
      <path id="Path_2549" data-name="Path 2549" d="M2292.026,2697.535c-.088.261.049,1.03,1.035,1.058s.856-.8.688-1.108c-.051-.093-.227-.125-.448-.125a7.2,7.2,0,0,0-1.274.175" transform="translate(-2292.004 -2697.36)" fill="none"/>
    </clipPath>
    <linearGradient id="linear-gradient-44" x1="-84.613" y1="3.168" x2="-84.576" y2="3.168" xlink:href="#linear-gradient-4"/>
    <clipPath id="clip-path-60">
      <path id="Path_2550" data-name="Path 2550" d="M2061.082,2713.7c-.123.373,1.23,1.234,2.069,1.343.253.033.01-.154.087-.231.209-.209.073-.758-.2-1.057a1.433,1.433,0,0,0-1.063-.4c-.436,0-.829.142-.9.341" transform="translate(-2061.074 -2713.363)" fill="none"/>
    </clipPath>
    <linearGradient id="linear-gradient-45" x1="-57.336" y1="2.168" x2="-57.308" y2="2.168" xlink:href="#linear-gradient-4"/>
    <clipPath id="clip-path-61">
      <path id="Path_2551" data-name="Path 2551" d="M2074.9,2684.307s.067.645.2,1.6a6.139,6.139,0,0,1-.041,1.339h1.3c-.491-.8-.061-3.052-.061-3.052Z" transform="translate(-2074.899 -2684.196)" fill="none"/>
    </clipPath>
    <linearGradient id="linear-gradient-46" x1="-116.066" y1="2.705" x2="-116.01" y2="2.705" xlink:href="#linear-gradient-8"/>
    <clipPath id="clip-path-62">
      <path id="Path_2552" data-name="Path 2552" d="M2008.078,2107.2a60.346,60.346,0,0,0-2.022,9.253c-1.584,11.521,1.783,11.889,1.154,24.655-.2,4.075,3.53,13.472,3.859,13.679a4.133,4.133,0,0,0,.516.021,5.157,5.157,0,0,0,1.314-.22c.591-.1,2.722-5.873,2.228-9.3-.349-2.429-.248-5.036-.045-10.249.033-.844,2.194-16.434,2.194-16.434.657,5.77,1.414,10.673,2.069,14.474,2.105,12.213,8.953,19.605,9.31,19.724a1.448,1.448,0,0,0,1.238-.085.852.852,0,0,0,.313-.353,100.416,100.416,0,0,0-2.142-21.261c-3.031-13.163-1.711-16.243-2.672-22.123-.361-2.21-3.678-2.836-7.312-2.836a59.5,59.5,0,0,0-10,1.059" transform="translate(-2005.628 -2106.138)" fill="none"/>
    </clipPath>
    <linearGradient id="linear-gradient-47" x1="-2.791" y1="1.347" x2="-2.789" y2="1.347" xlink:href="#linear-gradient-4"/>
    <clipPath id="clip-path-63">
      <path id="Path_2553" data-name="Path 2553" d="M2022.679,1827.247c-.044.04.478.319.221.62a16.661,16.661,0,0,0-1.8,2.581,17.369,17.369,0,0,0-1.512,3.74,32.089,32.089,0,0,0-1.193,6.525c-.466,6.125,0,8.951.415,10.873a21.2,21.2,0,0,0,12.1,1.776,18.89,18.89,0,0,0,6.03-1.986c-1.449-4.389-.312-6.738.224-8.9.765-3.087.778-2.854,1.407-5.306,1.039-4.046,1.21-8.18.5-9.026-1.926-2.281-5.4-2.364-7.2-2.417-.8-.023-2.011-.15-3.341-.15-2.018,0-4.309.291-5.845,1.673" transform="translate(-2018.201 -1825.574)" fill="url(#linear-gradient)"/>
    </clipPath>
    <clipPath id="clip-path-64">
      <path id="Path_2554" data-name="Path 2554" d="M2075.151,2719.046c-.123.247-.1,1.028.877,1.192s.959-.671.836-1c-.067-.179-.571-.22-1.015-.22-.369,0-.7.028-.7.028" transform="translate(-2075.1 -2719.018)" fill="none"/>
    </clipPath>
    <linearGradient id="linear-gradient-49" x1="-72.297" y1="2.466" x2="-72.262" y2="2.466" xlink:href="#linear-gradient-4"/>
    <clipPath id="clip-path-65">
      <path id="Path_2555" data-name="Path 2555" d="M2106.884,1731.123l-.042.016-.354.218c-.255.171-.392.305-.926,1.29a3.5,3.5,0,0,0-.375,2.506c.244.868,1.418,1.4,1.62,1.51a2.232,2.232,0,0,1-.668,1.7c-.73.672-3.324,1.35-3.454,1.584-.293.527,2.431.883,5.779.859,1.488.172,4.513-.589,4.363-1.06-.275-.865-.27-.062-2.934-1.068a1.119,1.119,0,0,1-.718-.922q-.072-.656-.19-1.34c-.02-.112-.04-.223-.06-.333.152-2.887-.381-4.929-.883-5.036a1.672,1.672,0,0,0-.268-.015,3.786,3.786,0,0,0-.89.086" transform="translate(-2102.664 -1731.038)" fill="none"/>
    </clipPath>
    <linearGradient id="linear-gradient-50" x1="-12.451" y1="6.592" x2="-12.445" y2="6.592" xlink:href="#linear-gradient-8"/>
    <clipPath id="clip-path-67">
      <path id="Path_2557" data-name="Path 2557" d="M2147.176,1766.434c-.3.406-.5,1.012-.135,1.089s.744-.328.741-.718a.47.47,0,0,0-.385-.5.272.272,0,0,0-.222.126" transform="translate(-2146.844 -1766.308)" fill="none"/>
    </clipPath>
    <linearGradient id="linear-gradient-51" x1="-114.276" y1="51.302" x2="-114.223" y2="51.302" xlink:href="#linear-gradient-8"/>
    <clipPath id="clip-path-69">
      <path id="Path_2560" data-name="Path 2560" d="M1063.572,970.718s-1.378.424-1.016,1.023,2.529,3.168,3.009,3.287.473-1.92.052-2.278-1.436-2.037-1.991-2.037a.239.239,0,0,0-.055.006" transform="translate(-1062.496 -970.712)" fill="none"/>
    </clipPath>
    <linearGradient id="linear-gradient-52" x1="-16.453" y1="30.982" x2="-16.437" y2="30.982" gradientUnits="objectBoundingBox">
      <stop offset="0" stop-color="#ab316d"/>
      <stop offset="1" stop-color="#792d3d"/>
    </linearGradient>
    <clipPath id="clip-path-70">
      <path id="Path_2561" data-name="Path 2561" d="M900.48,649.5c-.338,1.137,1.2,2.534,3.253,4.365,5.69,5.069,9.933,5.5,10.762,9.015a8.4,8.4,0,0,1-.048,3.3c-.473,2.745-1.771,3.671-1.658,5.7a5.545,5.545,0,0,0,1.27,3.113l1.019,0a14.823,14.823,0,0,0,5.307-8.112,15,15,0,0,0-.811-9.11,18.968,18.968,0,0,0-9.507-9.978c-.779-.043-1.769-.083-2.817-.083-2.939,0-6.33.318-6.769,1.795" transform="translate(-900.433 -647.705)" fill="none"/>
    </clipPath>
    <linearGradient id="linear-gradient-53" x1="-2.175" y1="5.244" x2="-2.172" y2="5.244" xlink:href="#linear-gradient-4"/>
    <clipPath id="clip-path-72">
      <rect id="Rectangle_4667" data-name="Rectangle 4667" width="18.511" height="27.088" fill="none"/>
    </clipPath>
    <clipPath id="clip-path-73">
      <path id="Path_2562" data-name="Path 2562" d="M915.626,671.366c1.558-3.583,3.977-5.5,3.151-7.625-.672-1.731-2.647-1.433-4.87-4-1.587-1.833-1.7-3.283-2.414-4.668-.905-1.766-2.929-3.72-7.706-4.945-1.683.23-3.04.7-3.307,1.6-.338,1.137,1.2,2.534,3.253,4.365,5.69,5.069,9.933,5.5,10.763,9.015a8.4,8.4,0,0,1-.049,3.3c-.473,2.745-1.771,3.671-1.658,5.7a5.544,5.544,0,0,0,1.27,3.113h.23a16.771,16.771,0,0,1,1.339-5.85" transform="translate(-900.433 -650.129)" fill="none"/>
    </clipPath>
    <linearGradient id="linear-gradient-54" x1="-3.772" y1="6.451" x2="-3.768" y2="6.451" xlink:href="#linear-gradient-4"/>
    <clipPath id="clip-path-74">
      <path id="Path_2563" data-name="Path 2563" d="M829.057,1142.479c-.1-.24-1.44.114-1.256.963.158.725.546,1.917,1.092,3.833a2.109,2.109,0,0,0,1.325,1.057.491.491,0,0,0,.542-.689,6.778,6.778,0,0,1-.8-2.649c.1-1.29.02-2.625-.577-2.625a.653.653,0,0,0-.331.111" transform="translate(-827.784 -1142.368)" fill="none"/>
    </clipPath>
    <linearGradient id="linear-gradient-55" x1="-9.709" y1="28.495" x2="-9.697" y2="28.495" xlink:href="#linear-gradient-52"/>
    <clipPath id="clip-path-75">
      <path id="Path_2564" data-name="Path 2564" d="M833.617,1125.208a.685.685,0,0,0,.96.236l.41-2.7-1.979-.233Z" transform="translate(-833.008 -1122.512)" fill="none"/>
    </clipPath>
    <linearGradient id="linear-gradient-56" x1="-25.693" y1="37.409" x2="-25.662" y2="37.409" gradientUnits="objectBoundingBox">
      <stop offset="0" stop-color="#f36f56"/>
      <stop offset="0.004" stop-color="#f36f56"/>
      <stop offset="1" stop-color="#ffc444"/>
    </linearGradient>
    <clipPath id="clip-path-76">
      <path id="Path_2565" data-name="Path 2565" d="M803.114,616.35c-1.113.579-1.558,1.827-2.142,4.564-1.977,9.268-.427,11.667-2.277,17.513-.945,2.987-1.808,3.809-2.612,7.5-.958,4.4-.462,6.593-.274,7.315a12.293,12.293,0,0,0,3.016,5.325l1.68.414c1.08-5.776,2.482-11.987,4.312-18.54,2.091-7.493,4.432-14.328,6.823-20.467-.58-.545-4.268-3.941-7.16-3.941a2.918,2.918,0,0,0-1.366.314" transform="translate(-795.512 -616.036)" fill="none"/>
    </clipPath>
    <linearGradient id="linear-gradient-57" x1="-1.621" y1="3.913" x2="-1.619" y2="3.913" xlink:href="#linear-gradient-4"/>
    <clipPath id="clip-path-77">
      <path id="Path_2566" data-name="Path 2566" d="M1194.334,611.593a5.508,5.508,0,0,0-1.378.425s-.355,1.44.484,1.137,1.384,1.614,1.746,2.212.717-.842.772-2.1c.048-1.085-.392-1.723-1.2-1.723a1.913,1.913,0,0,0-.42.05" transform="translate(-1192.882 -611.543)" fill="none"/>
    </clipPath>
    <linearGradient id="linear-gradient-58" x1="-25.18" y1="37.404" x2="-25.158" y2="37.404" xlink:href="#linear-gradient-56"/>
    <clipPath id="clip-path-78">
      <path id="Path_2567" data-name="Path 2567" d="M548.489,196.268a5.874,5.874,0,0,1,1.628,2.692l1.137-.484a7.977,7.977,0,0,1-.125-1.558,2.167,2.167,0,0,0-1.026-2.035c-.661-.417-1.5-.115-2.1-.772a.151.151,0,0,0-.106-.06c-.3,0-.38,1.518.594,2.216" transform="translate(-547.695 -194.052)" fill="none"/>
    </clipPath>
    <linearGradient id="linear-gradient-59" x1="-8.413" y1="50.921" x2="-8.398" y2="50.921" xlink:href="#linear-gradient-56"/>
    <clipPath id="clip-path-79">
      <path id="Path_2568" data-name="Path 2568" d="M909.873,381.457c-3.364.707-5.369,8.145-3.321,10.383.647.707,1.463.679,2.581.89,5.7,1.076,7.015,6.054,12.38,8.649a15.874,15.874,0,0,0,8.577,1.349q-.094-1.169-.188-2.337a24.937,24.937,0,0,1-7.214-5.85c-3.43-4.1-4.128-7.824-8.731-11.06-2.2-1.547-3.409-2.037-3.949-2.037a.67.67,0,0,0-.135.013" transform="translate(-905.725 -381.444)" fill="none"/>
    </clipPath>
    <linearGradient id="linear-gradient-60" x1="-2.072" y1="6.262" x2="-2.07" y2="6.262" xlink:href="#linear-gradient-8"/>
    <clipPath id="clip-path-80">
      <path id="Path_2569" data-name="Path 2569" d="M567,240.463c.036,5.017,1.535,8.041,2.912,9.881,4.282,5.724,10.58,4.285,14.185,10.622a15.4,15.4,0,0,1,1.886,7.847,10.774,10.774,0,0,1-1.123,4.56c-2.472,4.68-8.073,4.873-8.01,6.682.051,1.464,3.78,3.2,7.625,3.151,5.665-.069,6.547-3.944,14.247-6.165,4.6-1.326,8.285-1.1,8.5-2.488.188-1.194-2.492-1.7-3.493-4.424-.729-1.987.141-3.23.459-6a14.32,14.32,0,0,0-1.531-9.287,8.548,8.548,0,0,0-1.145-1.555c-2.815-2.965-6.991-2.137-12.839-2.653-3.679-.324-8.892-.791-13.322-3.79a18.737,18.737,0,0,1-5.959-6.813l-2.4.428" transform="translate(-567 -240.035)" fill="none"/>
    </clipPath>
    <linearGradient id="linear-gradient-61" x1="-0.632" y1="3.7" x2="-0.63" y2="3.7" xlink:href="#linear-gradient-8"/>
    <clipPath id="clip-path-81">
      <path id="Path_2570" data-name="Path 2570" d="M822.016,347.419a21.478,21.478,0,0,1-2.963.317l7.531,2.844,1.252-1.983s-2.7-.41-2.88-.709l-.9-1.5-1.44-.355s.484,1.137-.595,1.381" transform="translate(-819.053 -346.038)" fill="none"/>
    </clipPath>
    <linearGradient id="linear-gradient-62" x1="-12.016" y1="21.668" x2="-12.002" y2="21.668" xlink:href="#linear-gradient-56"/>
    <clipPath id="clip-path-82">
      <path id="Path_2571" data-name="Path 2571" d="M840.967,288.465c-1.3.473-1.715.088-2.619.621-.212.125-1.163.686-1.2,1.475-.05,1.006,1.408,1.972,2.382,1.711.462-.124.465-.429,1.463-1.109.81-.552.968-.459,1.286-.81.724-.8.806-2.279.339-2.558a.267.267,0,0,0-.14-.04c-.267,0-.611.383-1.509.71" transform="translate(-837.145 -287.755)" fill="none"/>
    </clipPath>
    <linearGradient id="linear-gradient-63" x1="-9.488" y1="27.142" x2="-9.477" y2="27.142" xlink:href="#linear-gradient-4"/>
    <clipPath id="clip-path-83">
      <path id="Path_2572" data-name="Path 2572" d="M854.238,316.722c-.223.089-.29.193-.657.331-.338.127-.44.1-.536.2-.12.124-.187.406.111,1.116a.613.613,0,0,0-.674-.144.383.383,0,0,0-.134.161c-.126.3.175.642.794.791a2.147,2.147,0,0,0,1.98.748c1.112-.193,1.008-2.721.235-3.177a1.148,1.148,0,0,0-.562-.126,1.531,1.531,0,0,0-.558.1" transform="translate(-852.32 -316.62)" fill="none"/>
    </clipPath>
    <linearGradient id="linear-gradient-64" x1="-13.211" y1="40.22" x2="-13.196" y2="40.22" xlink:href="#linear-gradient-56"/>
    <clipPath id="clip-path-85">
      <rect id="Rectangle_4680" data-name="Rectangle 4680" width="25.588" height="36.549" fill="none"/>
    </clipPath>
    <clipPath id="clip-path-86">
      <path id="Path_2573" data-name="Path 2573" d="M604.011,347.644c.14-1.7-3.341-2.222-3.673-4.723-.35-2.635,3.287-3.754,3.752-6.967.569-3.933-4.106-7.6-4.644-8.017-5.632-4.316-10.687-1.033-16.922-4.677a15.3,15.3,0,0,1-3.974-3.377,13.467,13.467,0,0,0,1.967,3.774c4.282,5.724,10.58,4.285,14.185,10.621a15.4,15.4,0,0,1,1.886,7.847,10.771,10.771,0,0,1-1.123,4.56c-2.472,4.681-8.073,4.873-8.01,6.682.043,1.251,2.776,2.7,5.97,3.064a9.184,9.184,0,0,1,1.853-3.3c3.211-3.606,8.561-3.382,8.734-5.486" transform="translate(-578.55 -319.882)" fill="none"/>
    </clipPath>
    <linearGradient id="linear-gradient-65" x1="-0.846" y1="4.776" x2="-0.844" y2="4.776" xlink:href="#linear-gradient-8"/>
    <clipPath id="clip-path-87">
      <path id="Path_2574" data-name="Path 2574" d="M35.258,0C30.2.007,25.907,3.381,21.614,6.755c-6.107,4.8-12.214,9.6-20.514,4.719-.723-.424-1.217-.351-1.075.275l3.6,15.883a2.985,2.985,0,0,0,1.535,1.754c7.91,3.41,13.678-2.626,19.447-8.662,5.957-6.233,11.913-12.466,20.227-8.3.491.245.834.206.756-.138L43.6,3.513a2.608,2.608,0,0,0-1.066-1.232A13.617,13.617,0,0,0,35.305,0Z" transform="translate(0 0.004)" fill="none"/>
    </clipPath>
    <linearGradient id="linear-gradient-66" x1="0.044" y1="4.3" x2="0.046" y2="4.3" xlink:href="#linear-gradient-26"/>
    <clipPath id="clip-path-89">
      <rect id="Rectangle_4683" data-name="Rectangle 4683" width="44.071" height="24.513" fill="none"/>
    </clipPath>
    <clipPath id="clip-path-90">
      <path id="Path_2576" data-name="Path 2576" d="M524.332,24.238a.418.418,0,0,0-.311.5l3.79,16.1a.418.418,0,0,0,.407.322.425.425,0,0,0,.1-.011.418.418,0,0,0,.311-.5l-3.79-16.1a.42.42,0,0,0-.5-.311" transform="translate(-524.01 -24.227)" fill="none"/>
    </clipPath>
    <linearGradient id="linear-gradient-67" x1="-2.072" y1="25.727" x2="-2.068" y2="25.727" xlink:href="#linear-gradient-4"/>
  </defs>
  <g id="Group_5710" data-name="Group 5710">
    <g id="Group_5709" data-name="Group 5709" clip-path="url(#clip-path)">
      <path id="Path_2581" data-name="Path 2581" d="M179.085,31.673c9.223-16.868,25.1-33.661,44.2-31.483,15.652,1.785,27.121,16,32.809,30.69s7.41,30.713,13.459,45.259,18.378,28.283,34.118,28.905c14.672.579,27.043-10.048,38.416-19.334s25.8-18.3,39.831-13.971c16.433,5.075,22.8,25.4,37.241,34.743,14.457,9.355,34.044,5.622,49.011-2.891s27.171-21.147,41.577-30.579,32.852-15.558,48.8-9.066c35.78,14.564,29.346,75.428,63.978,92.541,13.99,6.913,30.52,4.235,46.1,3.431s33.553,1.691,42.2,14.682c8.04,12.081,4.331,29.164-5.02,40.262s-23.079,17.428-36.6,22.692a413.311,413.311,0,0,1-75.553,21.4c-23.9,4.37-49.68,6.381-71.508-4.3-20.427-10-34.286-29.565-52.4-43.32a108.808,108.808,0,0,0-86.995-19.551c-23.565,4.96-44.671,17.63-65.3,30.062s-41.787,25.035-65.386,29.834-50.5.384-66.969-17.191c-20.028-21.377-20.555-56.76-42.764-75.86-17.731-15.25-43.474-15.24-66.861-15.328s-49.649-2.385-64.842-20.165C-22.611,84.223,29.155,35.2,68.733,60.649c18.673,12.009,35.638,28.266,59.961,25.165,28.615-3.648,38.359-32.135,50.391-54.14" transform="translate(0 0)" fill="#f8f8f8"/>
    </g>
  </g>
  <g id="Group_5706" data-name="Group 5706" transform="translate(-307.696 -255)">
    <g id="Group_5681" data-name="Group 5681" transform="translate(575.775 277)">
      <g id="Group_5708" data-name="Group 5708" transform="translate(0 0)">
        <g id="Group_5502" data-name="Group 5502" transform="translate(2.073 17.88)">
          <g id="Group_5707" data-name="Group 5707">
            <path id="Path_2489" data-name="Path 2489" d="M76.578,1658.252l-1.847-.016a14.368,14.368,0,0,0-.652-2.43l1.6-.907a.907.907,0,0,0,.335-1.244l-1.579-2.75a.925.925,0,0,0-1.251-.351l-1.623.914a14.843,14.843,0,0,0-1.781-1.79l.941-1.611a.922.922,0,0,0-.337-1.256l-2.755-1.626a.918.918,0,0,0-1.261.316l-.947,1.615a14.732,14.732,0,0,0-2.444-.679v-1.892a.943.943,0,0,0-.928-.935l-3.214-.054a.909.909,0,0,0-.933.906v1.9a14.607,14.607,0,0,0-2.466.609l-.96-1.655a.954.954,0,0,0-1.281-.359l-2.811,1.555a.911.911,0,0,0-.345,1.261l.963,1.656a14.5,14.5,0,0,0-1.824,1.766l-1.669-.968a.947.947,0,0,0-1.291.323l-1.635,2.76a.926.926,0,0,0,.347,1.273l1.657.956a14.2,14.2,0,0,0-.674,2.458L44,1657.979a.931.931,0,0,0-.949.922v3.214a.946.946,0,0,0,.949.936l1.9.01a14.347,14.347,0,0,0,.664,2.481l-1.632.919a.918.918,0,0,0-.347,1.269l1.635,2.783a.955.955,0,0,0,1.291.341l1.62-.917a14.808,14.808,0,0,0,1.84,1.818l-.931,1.587a.918.918,0,0,0,.345,1.266L53.2,1676.2a.946.946,0,0,0,1.281-.341l.919-1.572a14.768,14.768,0,0,0,2.507.656v1.815a.925.925,0,0,0,.933.92l3.214-.01a.927.927,0,0,0,.928-.922v-1.81a14.59,14.59,0,0,0,2.485-.66l.907,1.56a.926.926,0,0,0,1.261.333l2.755-1.588a.914.914,0,0,0,.337-1.251l-.91-1.569a14.494,14.494,0,0,0,1.8-1.793l1.575.909a.916.916,0,0,0,1.251-.333l1.579-2.729a.914.914,0,0,0-.335-1.248l-1.578-.915a14.2,14.2,0,0,0,.643-2.435l1.832.01a.906.906,0,0,0,.913-.907v-3.15a.921.921,0,0,0-.913-.92m-16.134-6.885a9.43,9.43,0,0,1,9.345,9.367,9.274,9.274,0,0,1-9.345,9.238A9.426,9.426,0,0,1,51,1660.605a9.271,9.271,0,0,1,9.448-9.238" transform="translate(-52.821 -1518.908)" fill="#abc"/>
            <path id="Path_2490" data-name="Path 2490" d="M306.793,829.581l-2.911-.08a21.915,21.915,0,0,0-1.029-3.752l2.526-1.342a1.356,1.356,0,0,0,.527-1.9l-2.49-4.275a1.5,1.5,0,0,0-1.975-.581L298.879,819a23.836,23.836,0,0,0-2.815-2.814l1.489-2.444a1.416,1.416,0,0,0-.532-1.943l-4.361-2.6a1.461,1.461,0,0,0-2,.44l-1.5,2.453a24.345,24.345,0,0,0-3.881-1.135v-2.917a1.519,1.519,0,0,0-1.475-1.477l-5.114-.2a1.388,1.388,0,0,0-1.486,1.365v2.93a23.585,23.585,0,0,0-3.934.85l-1.532-2.592a1.576,1.576,0,0,0-2.047-.6l-4.5,2.3a1.365,1.365,0,0,0-.552,1.939l1.543,2.6a22.182,22.182,0,0,0-2.921,2.669l-2.676-1.557a1.534,1.534,0,0,0-2.072.456l-2.627,4.222a1.426,1.426,0,0,0,.557,1.986l2.662,1.535a21.073,21.073,0,0,0-1.082,3.787l-3.076-.084a1.439,1.439,0,0,0-1.526,1.4v4.985a1.529,1.529,0,0,0,1.526,1.478l3.051.07a21.909,21.909,0,0,0,1.066,3.863l-2.622,1.38a1.382,1.382,0,0,0-.557,1.958l2.627,4.355a1.579,1.579,0,0,0,2.072.561l2.6-1.38a23.9,23.9,0,0,0,2.948,2.86l-1.491,2.433a1.408,1.408,0,0,0,.552,1.966l4.5,2.529a1.528,1.528,0,0,0,2.047-.5l1.468-2.409a24.392,24.392,0,0,0,4,1.071v2.8a1.475,1.475,0,0,0,1.486,1.44l5.114.053a1.429,1.429,0,0,0,1.475-1.4v-2.789a23.491,23.491,0,0,0,3.945-.96l1.439,2.422a1.5,1.5,0,0,0,2,.541l4.361-2.381a1.373,1.373,0,0,0,.532-1.917l-1.439-2.434a22.123,22.123,0,0,0,2.841-2.714l2.488,1.435a1.455,1.455,0,0,0,1.975-.481l2.49-4.15a1.4,1.4,0,0,0-.527-1.925l-2.488-1.448a21.083,21.083,0,0,0,1.014-3.721l2.888.066a1.38,1.38,0,0,0,1.437-1.366V831.02a1.466,1.466,0,0,0-1.437-1.439M281.247,818.47c8.22.273,14.828,6.864,14.828,14.723s-6.608,14.117-14.828,13.977c-8.3-.142-15.08-6.737-15.08-14.729s6.783-14.246,15.08-13.97" transform="translate(-234.749 -758.236)" fill="#abc"/>
            <g id="Group_5488" data-name="Group 5488" transform="translate(0 30.978)" opacity="0.74">
              <g id="Group_5487" data-name="Group 5487">
                <g id="Group_5486" data-name="Group 5486" clip-path="url(#clip-path-2)">
                  <path id="Path_2491" data-name="Path 2491" d="M71.829,596.956c-25.382-1.262-46.5,17.667-46.5,42.311s21.116,44.637,46.5,44.655c24.677.017,44.183-18.952,44.183-42.369s-19.506-43.37-44.183-44.6m0,76.568C52.582,673.4,36.67,658.187,36.67,639.552s15.912-33.043,35.159-32.2c18.838.826,33.819,16.013,33.819,33.937s-14.98,32.356-33.819,32.233" transform="translate(-25.331 -596.896)" fill="#fff"/>
                </g>
              </g>
            </g>
            <path id="Path_2492" data-name="Path 2492" d="M107.125,1315.509l-9.767,5.16a46.262,46.262,0,0,0,15.768,16.038l5.564-9.1a35.133,35.133,0,0,1-11.565-12.1" transform="translate(-91.462 -1225.712)" fill="#d8dee8"/>
            <path id="Path_2493" data-name="Path 2493" d="M811.813,699.553l9.077-4.784a46.475,46.475,0,0,0-14.6-13.942l-5.3,8.682a35.4,35.4,0,0,1,10.824,10.044" transform="translate(-737.5 -642.98)" fill="#d8dee8"/>
            <path id="Path_2494" data-name="Path 2494" d="M132.925,673.99a32.988,32.988,0,0,1,11.392-9.436l-5.547-9.36a43.349,43.349,0,0,0-15.623,13.114Z" transform="translate(-115.141 -619.445)" fill="#d8dee8"/>
            <path id="Path_2495" data-name="Path 2495" d="M36.67,1101.425c0-.4.017-.793.032-1.188l-11.354-.293q-.017.6-.017,1.2a42.619,42.619,0,0,0,4.9,19.806l9.808-5.169a32.382,32.382,0,0,1-3.369-14.351" transform="translate(-25.331 -1027.792)" fill="#d8dee8"/>
            <g id="Group_5491" data-name="Group 5491" transform="translate(77.189 74.228)" opacity="0.25">
              <g id="Group_5490" data-name="Group 5490">
                <g id="Group_5489" data-name="Group 5489" clip-path="url(#clip-path-3)">
                  <path id="Path_2496" data-name="Path 2496" d="M971.5,1126.448a31.327,31.327,0,0,1-3.128,13.694l9.045,5.256a41.175,41.175,0,0,0,4.447-18.689q0-.57-.016-1.137l-10.378-.268c.013.38.03.76.03,1.144" transform="translate(-968.373 -1125.303)" fill="#abc"/>
                </g>
              </g>
            </g>
            <g id="Group_5494" data-name="Group 5494" transform="translate(65.359 90.786)" opacity="0.25">
              <g id="Group_5493" data-name="Group 5493">
                <g id="Group_5492" data-name="Group 5492" clip-path="url(#clip-path-4)">
                  <path id="Path_2497" data-name="Path 2497" d="M834.783,1327.591a32.53,32.53,0,0,1-10.939,11.481l5.3,8.952a42.8,42.8,0,0,0,14.667-15.2Z" transform="translate(-823.844 -1327.591)" fill="#abc"/>
                </g>
              </g>
            </g>
            <path id="Path_2498" data-name="Path 2498" d="M946.634,876.321a32.712,32.712,0,0,1,4.755,14.058l10.4.28a42.924,42.924,0,0,0-6.119-19.114Z" transform="translate(-871.224 -818.087)" fill="#d8dee8"/>
            <g id="Group_5497" data-name="Group 5497" transform="translate(23.464 102.965)" opacity="0.25">
              <g id="Group_5496" data-name="Group 5496">
                <g id="Group_5495" data-name="Group 5495" clip-path="url(#clip-path-5)">
                  <path id="Path_2499" data-name="Path 2499" d="M334,1481a36.086,36.086,0,0,1-16.461-4.608l-5.547,9.079A47.452,47.452,0,0,0,334,1491.414Z" transform="translate(-311.995 -1476.39)" fill="#abc"/>
                </g>
              </g>
            </g>
            <g id="Group_5500" data-name="Group 5500" transform="translate(47.525 103.279)" opacity="0.25">
              <g id="Group_5499" data-name="Group 5499">
                <g id="Group_5498" data-name="Group 5498" clip-path="url(#clip-path-6)">
                  <path id="Path_2500" data-name="Path 2500" d="M622.078,1480.232a34.666,34.666,0,0,1-16.124,4.307v10.4a45.585,45.585,0,0,0,21.425-5.765Z" transform="translate(-605.954 -1480.232)" fill="#abc"/>
                </g>
              </g>
            </g>
            <path id="Path_2501" data-name="Path 2501" d="M342.147,610.182a34.98,34.98,0,0,1,14.451-2.83V596.936a46.01,46.01,0,0,0-19.993,3.882Z" transform="translate(-311.127 -565.938)" fill="#d8dee8"/>
            <path id="Path_2502" data-name="Path 2502" d="M38.232,855.553a31.259,31.259,0,0,1,5.109-14.262l-9.762-5.66a41.092,41.092,0,0,0-6.727,19.615Z" transform="translate(-26.727 -785.113)" fill="#d8dee8"/>
            <path id="Path_2503" data-name="Path 2503" d="M605.955,608.8a36.11,36.11,0,0,1,14.186,4.026l5.321-8.7a47.492,47.492,0,0,0-19.507-5.732Z" transform="translate(-558.43 -567.3)" fill="#d8dee8"/>
            <path id="Path_2504" data-name="Path 2504" d="M1095.173,229.091l-1.42.012a10.223,10.223,0,0,0-.5-1.793l1.231-.693a.666.666,0,0,0,.257-.927l-1.214-2.019a.717.717,0,0,0-.962-.243l-1.246.7a10.889,10.889,0,0,0-1.367-1.3l.723-1.206a.663.663,0,0,0-.258-.926l-2.114-1.166a.726.726,0,0,0-.967.252l-.726,1.209a11.433,11.433,0,0,0-1.873-.47v-1.4a.694.694,0,0,0-.71-.679l-2.459.005a.7.7,0,0,0-.714.684v1.4a11.612,11.612,0,0,0-1.885.484l-.733-1.21a.734.734,0,0,0-.978-.247l-2.146,1.188a.668.668,0,0,0-.263.936l.735,1.21a11.18,11.18,0,0,0-1.391,1.329l-1.273-.693a.743.743,0,0,0-.984.256l-1.246,2.059a.666.666,0,0,0,.264.936l1.263.684a10.379,10.379,0,0,0-.513,1.823l-1.458.012a.712.712,0,0,0-.723.693v2.371a.7.7,0,0,0,.723.679l1.446-.015a10.208,10.208,0,0,0,.506,1.824l-1.244.7a.673.673,0,0,0-.264.941l1.246,2.036a.735.735,0,0,0,.984.238l1.235-.7a10.9,10.9,0,0,0,1.4,1.323l-.71,1.182a.661.661,0,0,0,.263.931l2.146,1.148a.742.742,0,0,0,.978-.266l.7-1.172a11.466,11.466,0,0,0,1.916.459v1.342a.685.685,0,0,0,.714.671l2.459-.04a.71.71,0,0,0,.71-.692v-1.339a11.593,11.593,0,0,0,1.9-.515l.7,1.145a.718.718,0,0,0,.967.234l2.114-1.205a.67.67,0,0,0,.258-.931l-.7-1.152a11.212,11.212,0,0,0,1.379-1.349l1.21.656a.725.725,0,0,0,.962-.261l1.214-2.041a.659.659,0,0,0-.257-.922l-1.213-.66a10.376,10.376,0,0,0,.494-1.813l1.409-.014a.7.7,0,0,0,.7-.684v-2.337a.683.683,0,0,0-.7-.671M1082.8,224.2a6.964,6.964,0,0,1,7.162,6.816,7.122,7.122,0,0,1-7.162,6.949,6.964,6.964,0,0,1-7.22-6.816,7.122,7.122,0,0,1,7.22-6.95" transform="translate(-978.84 -232.437)" fill="#d8dee8"/>
            <path id="Path_2505" data-name="Path 2505" d="M2003.057,857.974a5.135,5.135,0,0,0,4.635-9.128c-.121-.061-.244-.113-.367-.162a29.5,29.5,0,0,0,.977-4.207c.134,0,.268,0,.4-.015a5.356,5.356,0,0,0,4.708-5.451,4.536,4.536,0,0,0-4.91-4.594c-.139.013-.275.034-.411.059a27.073,27.073,0,0,0-1.137-4.017c.122-.071.244-.145.362-.229a5.356,5.356,0,0,0,1.623-7.018,4.536,4.536,0,0,0-6.606-1.253c-.116.081-.226.17-.334.259a24.011,24.011,0,0,0-2.947-2.751c.075-.123.148-.247.215-.378,1.28-2.521,2.952-5.274.606-6.419-5.427-2.65-7.756-.381-9.036,2.139-.067.131-.124.263-.179.4a23.987,23.987,0,0,0-3.959-.756c.008-.14.014-.28.012-.423-.056-2.774.768-4.275-1.9-4.327-5.813-.113-7.775,2.41-7.719,5.184,0,.145.015.287.029.428a27.067,27.067,0,0,0-3.914,1.452c-.061-.124-.124-.247-.2-.366a4.536,4.536,0,0,0-6.606-1.253,5.355,5.355,0,0,0-1.622,7.018c.07.117.147.226.226.334a29.488,29.488,0,0,0-2.819,3.271c-.112-.071-.227-.14-.347-.2a5.135,5.135,0,0,0-4.635,9.128c.121.061.244.113.367.162a29.475,29.475,0,0,0-.977,4.206c-.134,0-.267,0-.4.015a5.356,5.356,0,0,0-4.708,5.451,4.536,4.536,0,0,0,4.91,4.594c.139-.013.275-.034.411-.058a27.051,27.051,0,0,0,1.137,4.017c-.122.072-.244.146-.362.229a5.356,5.356,0,0,0-1.623,7.018c1.376,2.284,5.932,3.345,8.2,1.753.116-.082-1.372-.67-1.264-.759a23.987,23.987,0,0,0,2.947,2.751c-.075.123-.148.247-.214.378a4.742,4.742,0,1,0,8.43,4.28c.066-.13.123-.263.178-.4a23.969,23.969,0,0,0,3.959.756c-.008.14-.015.281-.012.423a4.535,4.535,0,0,0,4.909,4.594,5.355,5.355,0,0,0,4.708-5.451c0-.145-.015-.287-.029-.428a27.07,27.07,0,0,0,3.914-1.453c.061.124.124.247.2.366a4.536,4.536,0,0,0,6.606,1.253,5.355,5.355,0,0,0,1.622-7.018c-.07-.117-.148-.226-.226-.334a29.534,29.534,0,0,0,2.82-3.271c.112.071.227.139.347.2m-29.019.368c-8.452-4.291-11.537-15.189-6.89-24.341s15.265-13.092,23.717-8.8,11.537,15.189,6.89,24.341-15.265,13.092-23.717,8.8" transform="translate(-1793.829 -761.302)" fill="#abc"/>
            <path id="Path_2506" data-name="Path 2506" d="M2286.649,903.051a5.356,5.356,0,0,0,4.708-5.451,4.535,4.535,0,0,0-4.909-4.594c-.139.012-.275.035-.41.059a27.186,27.186,0,0,0-1.137-4.017c.122-.071.243-.146.362-.228,2.272-1.592,5.084-5.439,3.48-7.569-3.042-4.044-6.191-2.293-8.463-.7-.116.082-.226.17-.334.259a24.008,24.008,0,0,0-2.947-2.751c.075-.123.148-.247.214-.378a5.288,5.288,0,0,0,.3-4.17q-3.293,5.794-6.486,11.642c6.743,4.941,8.89,14.678,4.675,22.979a18.612,18.612,0,0,1-17.6,10.49c-.309.8-.613,1.608-.943,2.4-.9,2.155-1.92,4.266-2.942,6.375q.965.182,1.936.284c-.009.14-.015.281-.012.423.055,2.774,1.74,5.131,6.553,4.875,2.663-.141,3.121-2.959,3.065-5.733,0-.145-.015-.287-.03-.427a27.064,27.064,0,0,0,3.914-1.453c.061.124.124.247.2.366,1.376,2.284,6.15,3.254,8.423,1.662s1.182-5.143-.194-7.427c-.071-.117-.148-.226-.226-.334a29.567,29.567,0,0,0,2.819-3.271c.112.071.227.14.347.2a5.135,5.135,0,0,0,4.635-9.128c-.121-.061-.244-.112-.367-.162a29.477,29.477,0,0,0,.977-4.206c.133,0,.267,0,.4-.015" transform="translate(-2071.774 -819.89)" fill="#abc"/>
            <path id="Path_2507" data-name="Path 2507" d="M2033.647,858.29a5.135,5.135,0,0,0,4.635-9.128c-.121-.061-.244-.113-.367-.162a29.611,29.611,0,0,0,.977-4.207c.133,0,.267,0,.4-.015a5.355,5.355,0,0,0,4.708-5.451,4.535,4.535,0,0,0-4.909-4.594c-.139.012-.275.034-.411.058a27.11,27.11,0,0,0-1.137-4.017c.122-.071.244-.145.363-.228a5.355,5.355,0,0,0,1.622-7.018,4.536,4.536,0,0,0-6.606-1.253c-.116.082-.226.17-.334.259a24,24,0,0,0-2.946-2.751c.075-.123.148-.247.215-.378a4.742,4.742,0,1,0-8.43-4.28c-.066.131-.123.263-.178.4a24,24,0,0,0-3.959-.756c.008-.14.015-.281.012-.423a4.536,4.536,0,0,0-4.91-4.594,5.356,5.356,0,0,0-4.708,5.451c0,.145.015.287.03.428a27.06,27.06,0,0,0-3.914,1.453c-.061-.124-.123-.247-.2-.366a4.535,4.535,0,0,0-6.606-1.253,5.355,5.355,0,0,0-1.623,7.018c.07.117.147.226.226.334a29.546,29.546,0,0,0-2.819,3.271c-.113-.071-.227-.14-.347-.2a5.135,5.135,0,0,0-4.635,9.128c.12.061.244.113.367.162a29.548,29.548,0,0,0-.977,4.207c-.133,0-.267,0-.4.015a5.356,5.356,0,0,0-4.708,5.451,4.536,4.536,0,0,0,4.91,4.594c.138-.012.275-.034.411-.058a27.138,27.138,0,0,0,1.137,4.017c-.122.071-.244.145-.362.229a5.356,5.356,0,0,0-1.623,7.018,4.536,4.536,0,0,0,6.606,1.253c.116-.082.226-.17.334-.259a24.014,24.014,0,0,0,2.947,2.751c-.075.123-.148.247-.215.378a4.742,4.742,0,1,0,8.43,4.28c.066-.13.124-.263.178-.4a24.017,24.017,0,0,0,3.96.756c-.009.14-.015.281-.013.423a4.536,4.536,0,0,0,4.911,4.594,5.356,5.356,0,0,0,4.708-5.451c0-.145-.015-.287-.029-.427a27.057,27.057,0,0,0,3.914-1.453c.06.124.123.247.2.366a4.535,4.535,0,0,0,6.606,1.253,5.356,5.356,0,0,0,1.623-7.018c-.07-.117-.148-.226-.226-.334a29.524,29.524,0,0,0,2.819-3.271c.112.071.227.14.347.2m-29.019.368c-8.452-4.291-11.537-15.189-6.891-24.341s15.265-13.092,23.717-8.8,11.537,15.189,6.89,24.341-15.265,13.092-23.717,8.8" transform="translate(-1821.916 -761.333)" fill="#d8dee8"/>
          </g>
        </g>
        <g id="Group_5504" data-name="Group 5504" transform="translate(123.974 118.145)">
          <g id="Group_5503" data-name="Group 5503" clip-path="url(#clip-path-7)">
            <rect id="Rectangle_4603" data-name="Rectangle 4603" width="72.225" height="70.687" transform="matrix(0.666, -0.746, 0.746, 0.666, -30.478, 33.533)" fill="url(#linear-gradient-4)"/>
          </g>
        </g>
        <g id="Group_5506" data-name="Group 5506" transform="translate(46.262 76)">
          <g id="Group_5505" data-name="Group 5505" clip-path="url(#clip-path-8)">
            <rect id="Rectangle_4604" data-name="Rectangle 4604" width="63.012" height="65.261" transform="translate(-16.494 17.358) rotate(-48.21)" fill="url(#linear-gradient-5)"/>
          </g>
        </g>
        <g id="Group_5508" data-name="Group 5508" transform="translate(126.037 115.837)">
          <g id="Group_5507" data-name="Group 5507" clip-path="url(#clip-path-9)">
            <rect id="Rectangle_4605" data-name="Rectangle 4605" width="72.225" height="70.687" transform="matrix(0.666, -0.746, 0.746, 0.666, -30.478, 33.533)" fill="url(#linear-gradient-6)"/>
          </g>
        </g>
        <g id="Group_5510" data-name="Group 5510" transform="translate(48.325 73.692)">
          <g id="Group_5509" data-name="Group 5509" clip-path="url(#clip-path-10)">
            <rect id="Rectangle_4606" data-name="Rectangle 4606" width="66.217" height="47.576" transform="translate(-9.864 2.774) rotate(-17.342)" fill="url(#linear-gradient-7)"/>
          </g>
        </g>
        <g id="Group_5512" data-name="Group 5512" transform="translate(87.178 8.81)">
          <g id="Group_5511" data-name="Group 5511" clip-path="url(#clip-path-11)">
            <rect id="Rectangle_4607" data-name="Rectangle 4607" width="138.609" height="133.852" transform="matrix(1, -0.03, 0.03, 1, -4.275, 0.12)" fill="url(#linear-gradient-8)"/>
          </g>
        </g>
        <g id="Group_5519" data-name="Group 5519" transform="translate(0)">
          <g id="Group_5518" data-name="Group 5518" clip-path="url(#clip-path-12)">
            <g id="Group_5517" data-name="Group 5517" transform="translate(108.644 22.658)" opacity="0.3" style="mix-blend-mode: multiply;isolation: isolate">
              <g id="Group_5516" data-name="Group 5516">
                <g id="Group_5515" data-name="Group 5515" clip-path="url(#clip-path-13)">
                  <g id="Group_5514" data-name="Group 5514" transform="translate(0 0)">
                    <g id="Group_5513" data-name="Group 5513" clip-path="url(#clip-path-14)">
                      <rect id="Rectangle_4608" data-name="Rectangle 4608" width="109.45" height="119.134" transform="translate(-3.531 0.108) rotate(-1.746)" fill="url(#linear-gradient-9)"/>
                    </g>
                  </g>
                </g>
              </g>
            </g>
          </g>
        </g>
        <g id="Group_5521" data-name="Group 5521" transform="translate(150.75 8.811)">
          <g id="Group_5520" data-name="Group 5520" clip-path="url(#clip-path-15)">
            <rect id="Rectangle_4611" data-name="Rectangle 4611" width="84.053" height="84.614" transform="matrix(0.666, -0.746, 0.746, 0.666, -27.915, 31.232)" fill="url(#linear-gradient-10)"/>
          </g>
        </g>
        <g id="Group_5528" data-name="Group 5528" transform="translate(0)">
          <g id="Group_5527" data-name="Group 5527" clip-path="url(#clip-path-12)">
            <g id="Group_5526" data-name="Group 5526" transform="translate(195.292 22.658)" opacity="0.3" style="mix-blend-mode: multiply;isolation: isolate">
              <g id="Group_5525" data-name="Group 5525">
                <g id="Group_5524" data-name="Group 5524" clip-path="url(#clip-path-17)">
                  <g id="Group_5523" data-name="Group 5523" transform="translate(0 0)">
                    <g id="Group_5522" data-name="Group 5522" clip-path="url(#clip-path-18)">
                      <rect id="Rectangle_4612" data-name="Rectangle 4612" width="16.535" height="42.779" transform="matrix(1, -0.03, 0.03, 1, -1.289, 0.039)" fill="url(#linear-gradient-11)"/>
                    </g>
                  </g>
                </g>
              </g>
            </g>
          </g>
        </g>
        <g id="Group_5530" data-name="Group 5530" transform="translate(126.688 35.324)">
          <g id="Group_5529" data-name="Group 5529" clip-path="url(#clip-path-19)">
            <rect id="Rectangle_4615" data-name="Rectangle 4615" width="91.223" height="91.64" transform="matrix(0.666, -0.746, 0.746, 0.666, -34.614, 34.531)" fill="url(#linear-gradient-12)"/>
          </g>
        </g>
        <g id="Group_5537" data-name="Group 5537" transform="translate(0)">
          <g id="Group_5536" data-name="Group 5536" clip-path="url(#clip-path-12)">
            <g id="Group_5535" data-name="Group 5535" transform="translate(134.915 53.262)" style="mix-blend-mode: multiply;isolation: isolate">
              <g id="Group_5534" data-name="Group 5534">
                <g id="Group_5533" data-name="Group 5533" clip-path="url(#clip-path-21)">
                  <g id="Group_5532" data-name="Group 5532" transform="translate(0 0)">
                    <g id="Group_5531" data-name="Group 5531" clip-path="url(#clip-path-22)">
                      <rect id="Rectangle_4616" data-name="Rectangle 4616" width="68.682" height="69.431" transform="matrix(0.666, -0.746, 0.746, 0.666, -21.951, 24.56)" fill="url(#linear-gradient-13)"/>
                    </g>
                  </g>
                </g>
              </g>
            </g>
          </g>
        </g>
        <g id="Group_5539" data-name="Group 5539" transform="translate(129.185 37.792)">
          <g id="Group_5538" data-name="Group 5538" clip-path="url(#clip-path-23)">
            <rect id="Rectangle_4619" data-name="Rectangle 4619" width="71.651" height="74.979" transform="matrix(0.273, -0.962, 0.962, 0.273, -18.405, 52.686)" fill="url(#linear-gradient-14)"/>
          </g>
        </g>
        <g id="Group_5541" data-name="Group 5541" transform="translate(132.723 41.288)">
          <g id="Group_5540" data-name="Group 5540" clip-path="url(#clip-path-24)">
            <rect id="Rectangle_4620" data-name="Rectangle 4620" width="56.09" height="59.725" transform="matrix(0.128, -0.992, 0.992, 0.128, -9.303, 48.783)" fill="url(#linear-gradient-15)"/>
          </g>
        </g>
        <g id="Group_5543" data-name="Group 5543" transform="translate(86.16 102.89)">
          <g id="Group_5542" data-name="Group 5542" clip-path="url(#clip-path-25)">
            <rect id="Rectangle_4621" data-name="Rectangle 4621" width="57.804" height="58.867" transform="translate(-20.868 24.463) rotate(-52.592)" fill="url(#linear-gradient-16)"/>
          </g>
        </g>
        <g id="Group_5545" data-name="Group 5545" transform="translate(81.8 110.986)">
          <g id="Group_5544" data-name="Group 5544" clip-path="url(#clip-path-26)">
            <rect id="Rectangle_4622" data-name="Rectangle 4622" width="51.144" height="51.376" transform="matrix(0.666, -0.746, 0.746, 0.666, -17.883, 19.369)" fill="url(#linear-gradient-17)"/>
          </g>
        </g>
        <g id="Group_5547" data-name="Group 5547" transform="translate(80.838 115.692)">
          <g id="Group_5546" data-name="Group 5546" clip-path="url(#clip-path-27)">
            <rect id="Rectangle_4623" data-name="Rectangle 4623" width="44.757" height="47.235" transform="translate(-13.836 27.454) rotate(-66.593)" fill="url(#linear-gradient-18)"/>
          </g>
        </g>
        <g id="Group_5549" data-name="Group 5549" transform="translate(84.852 119.365)">
          <g id="Group_5548" data-name="Group 5548" clip-path="url(#clip-path-28)">
            <rect id="Rectangle_4624" data-name="Rectangle 4624" width="34.016" height="35.899" transform="matrix(0.397, -0.918, 0.918, 0.397, -10.515, 20.865)" fill="url(#linear-gradient-19)"/>
          </g>
        </g>
        <g id="Group_5556" data-name="Group 5556" transform="translate(0)">
          <g id="Group_5555" data-name="Group 5555" clip-path="url(#clip-path-12)">
            <g id="Group_5554" data-name="Group 5554" transform="translate(137.691 55.226)" opacity="0.3" style="mix-blend-mode: color-burn;isolation: isolate">
              <g id="Group_5553" data-name="Group 5553">
                <g id="Group_5552" data-name="Group 5552" clip-path="url(#clip-path-30)">
                  <g id="Group_5551" data-name="Group 5551" transform="translate(0 0)">
                    <g id="Group_5550" data-name="Group 5550" clip-path="url(#clip-path-31)">
                      <rect id="Rectangle_4625" data-name="Rectangle 4625" width="41.066" height="48.65" transform="translate(-4.536 35.074) rotate(-82.632)" fill="url(#linear-gradient-20)"/>
                    </g>
                  </g>
                </g>
              </g>
            </g>
          </g>
        </g>
        <g id="Group_5558" data-name="Group 5558" transform="translate(2.402 125.688)">
          <g id="Group_5557" data-name="Group 5557" clip-path="url(#clip-path-32)">
            <path id="Path_2525" data-name="Path 2525" d="M-381.366,983.249-300.3,894.2l75.5,93.869-81.066,89.05Z" transform="translate(347.749 -946.695)" fill="url(#linear-gradient-21)"/>
          </g>
        </g>
        <g id="Group_5560" data-name="Group 5560" transform="translate(16.082 126.409)">
          <g id="Group_5559" data-name="Group 5559" clip-path="url(#clip-path-33)">
            <rect id="Rectangle_4628" data-name="Rectangle 4628" width="79.541" height="84.248" transform="translate(-20.654 24.136) rotate(-50.438)" fill="url(#linear-gradient-22)"/>
          </g>
        </g>
        <g id="Group_5562" data-name="Group 5562" transform="translate(62.825 133.86)">
          <g id="Group_5561" data-name="Group 5561" clip-path="url(#clip-path-34)">
            <rect id="Rectangle_4629" data-name="Rectangle 4629" width="80.148" height="76.953" transform="matrix(0.637, -0.771, 0.771, 0.637, -34.584, 40.246)" fill="url(#linear-gradient-23)"/>
          </g>
        </g>
        <g id="Group_5564" data-name="Group 5564" transform="translate(186.644 132.626)">
          <g id="Group_5563" data-name="Group 5563" clip-path="url(#clip-path-35)">
            <rect id="Rectangle_4630" data-name="Rectangle 4630" width="4.356" height="4.476" transform="translate(-0.649 0.111) rotate(-9.732)" fill="url(#linear-gradient-24)"/>
          </g>
        </g>
        <g id="Group_5566" data-name="Group 5566" transform="translate(200.957 130.21)">
          <g id="Group_5565" data-name="Group 5565" clip-path="url(#clip-path-36)">
            <rect id="Rectangle_4631" data-name="Rectangle 4631" width="4.958" height="3.929" transform="translate(-0.732 0.157) rotate(-13.236)" fill="url(#linear-gradient-25)"/>
          </g>
        </g>
        <g id="Group_5568" data-name="Group 5568" transform="translate(197.457 131.41)">
          <g id="Group_5567" data-name="Group 5567" clip-path="url(#clip-path-37)">
            <rect id="Rectangle_4632" data-name="Rectangle 4632" width="22.104" height="30.399" transform="translate(-3.183 0.341) rotate(-6.278)" fill="url(#linear-gradient-26)"/>
          </g>
        </g>
        <g id="Group_5570" data-name="Group 5570" transform="translate(200.791 216.64)">
          <g id="Group_5569" data-name="Group 5569" clip-path="url(#clip-path-38)">
            <rect id="Rectangle_4633" data-name="Rectangle 4633" width="1.67" height="2.155" transform="translate(-0.074 0.003) rotate(-2.017)" fill="url(#linear-gradient-27)"/>
          </g>
        </g>
        <g id="Group_5572" data-name="Group 5572" transform="translate(197.268 178.796)">
          <g id="Group_5571" data-name="Group 5571" clip-path="url(#clip-path-39)">
            <rect id="Rectangle_4634" data-name="Rectangle 4634" width="12.552" height="38.826" transform="matrix(0.997, -0.08, 0.08, 0.997, -3.028, 0.242)" fill="url(#linear-gradient-28)"/>
          </g>
        </g>
        <g id="Group_5579" data-name="Group 5579" transform="translate(0)">
          <g id="Group_5578" data-name="Group 5578" clip-path="url(#clip-path-12)">
            <g id="Group_5577" data-name="Group 5577" transform="translate(197.268 178.796)" opacity="0.3" style="mix-blend-mode: multiply;isolation: isolate">
              <g id="Group_5576" data-name="Group 5576">
                <g id="Group_5575" data-name="Group 5575" clip-path="url(#clip-path-41)">
                  <g id="Group_5574" data-name="Group 5574" transform="translate(0)">
                    <g id="Group_5573" data-name="Group 5573" clip-path="url(#clip-path-42)">
                      <rect id="Rectangle_4635" data-name="Rectangle 4635" width="12.552" height="38.826" transform="translate(-3.028 0.242) rotate(-4.562)" fill="url(#linear-gradient-29)"/>
                    </g>
                  </g>
                </g>
              </g>
            </g>
          </g>
        </g>
        <g id="Group_5581" data-name="Group 5581" transform="translate(198.913 217.69)">
          <g id="Group_5580" data-name="Group 5580" clip-path="url(#clip-path-43)">
            <rect id="Rectangle_4638" data-name="Rectangle 4638" width="3.604" height="4.092" transform="matrix(0.256, -0.967, 0.967, 0.256, -0.745, 2.619)" fill="url(#linear-gradient-30)"/>
          </g>
        </g>
        <g id="Group_5583" data-name="Group 5583" transform="translate(200.391 200.836)">
          <g id="Group_5582" data-name="Group 5582" clip-path="url(#clip-path-44)">
            <rect id="Rectangle_4639" data-name="Rectangle 4639" width="2.837" height="2.895" transform="translate(-0.869 1.01) rotate(-49.299)" fill="url(#linear-gradient-31)"/>
          </g>
        </g>
        <g id="Group_5585" data-name="Group 5585" transform="translate(201.72 201.441)">
          <g id="Group_5584" data-name="Group 5584" clip-path="url(#clip-path-45)">
            <rect id="Rectangle_4640" data-name="Rectangle 4640" width="3.69" height="4.376" transform="matrix(0.844, -0.536, 0.536, 0.844, -1.936, 1.16)" fill="url(#linear-gradient-32)"/>
          </g>
        </g>
        <g id="Group_5587" data-name="Group 5587" transform="translate(187.614 175.558)">
          <g id="Group_5586" data-name="Group 5586" clip-path="url(#clip-path-46)">
            <rect id="Rectangle_4641" data-name="Rectangle 4641" width="27.771" height="15.997" transform="translate(-1.342 27.072) rotate(-87.397)" fill="url(#linear-gradient-33)"/>
          </g>
        </g>
        <g id="Group_5589" data-name="Group 5589" transform="translate(191.554 150.934)">
          <g id="Group_5588" data-name="Group 5588" clip-path="url(#clip-path-47)">
            <rect id="Rectangle_4642" data-name="Rectangle 4642" width="43.843" height="44.743" transform="matrix(0.986, -0.169, 0.169, 0.986, -7.387, 1.112)" fill="url(#linear-gradient-34)"/>
          </g>
        </g>
        <g id="Group_5596" data-name="Group 5596" transform="translate(0)">
          <g id="Group_5595" data-name="Group 5595" clip-path="url(#clip-path-12)">
            <g id="Group_5594" data-name="Group 5594" transform="translate(191.554 169.59)" opacity="0.3" style="mix-blend-mode: multiply;isolation: isolate">
              <g id="Group_5593" data-name="Group 5593">
                <g id="Group_5592" data-name="Group 5592" clip-path="url(#clip-path-49)">
                  <g id="Group_5591" data-name="Group 5591" transform="translate(0)">
                    <g id="Group_5590" data-name="Group 5590" clip-path="url(#clip-path-50)">
                      <rect id="Rectangle_4643" data-name="Rectangle 4643" width="40.946" height="38.197" transform="translate(-10.216 7.667) rotate(-37.967)" fill="url(#linear-gradient-35)"/>
                    </g>
                  </g>
                </g>
              </g>
            </g>
          </g>
        </g>
        <g id="Group_5598" data-name="Group 5598" transform="translate(196.352 144.945)">
          <g id="Group_5597" data-name="Group 5597" clip-path="url(#clip-path-51)">
            <rect id="Rectangle_4646" data-name="Rectangle 4646" width="9.199" height="9.728" transform="matrix(0.832, -0.555, 0.555, 0.832, -3.594, 2.4)" fill="url(#linear-gradient-36)"/>
          </g>
        </g>
        <g id="Group_5600" data-name="Group 5600" transform="translate(179.282 135.205)">
          <g id="Group_5599" data-name="Group 5599" clip-path="url(#clip-path-52)">
            <rect id="Rectangle_4647" data-name="Rectangle 4647" width="27.678" height="32.172" transform="matrix(0.986, -0.169, 0.169, 0.986, -6.3, 0.819)" fill="url(#linear-gradient-37)"/>
          </g>
        </g>
        <g id="Group_5602" data-name="Group 5602" transform="translate(196.968 142.044)">
          <g id="Group_5601" data-name="Group 5601" clip-path="url(#clip-path-53)">
            <rect id="Rectangle_4648" data-name="Rectangle 4648" width="40.529" height="41.256" transform="translate(-13.096 6.478) rotate(-27.097)" fill="url(#linear-gradient-38)"/>
          </g>
        </g>
        <g id="Group_5604" data-name="Group 5604" transform="translate(146.563 127.32)">
          <g id="Group_5603" data-name="Group 5603" clip-path="url(#clip-path-54)">
            <rect id="Rectangle_4649" data-name="Rectangle 4649" width="6.697" height="8.578" transform="translate(-3.036 1.21) rotate(-23.484)" fill="url(#linear-gradient-39)"/>
          </g>
        </g>
        <g id="Group_5606" data-name="Group 5606" transform="translate(148.109 133.482)">
          <g id="Group_5605" data-name="Group 5605" clip-path="url(#clip-path-55)">
            <rect id="Rectangle_4650" data-name="Rectangle 4650" width="36.116" height="36.317" transform="translate(-10.133 4.402) rotate(-23.484)" fill="url(#linear-gradient)"/>
          </g>
        </g>
        <g id="Group_5608" data-name="Group 5608" transform="translate(172.587 150.603)">
          <g id="Group_5607" data-name="Group 5607" clip-path="url(#clip-path-56)">
            <rect id="Rectangle_4651" data-name="Rectangle 4651" width="27.16" height="25.201" transform="translate(-5.397 21.587) rotate(-75.964)" fill="url(#linear-gradient)"/>
          </g>
        </g>
        <g id="Group_5610" data-name="Group 5610" transform="translate(186.422 220.493)">
          <g id="Group_5609" data-name="Group 5609" clip-path="url(#clip-path-57)">
            <rect id="Rectangle_4652" data-name="Rectangle 4652" width="2.693" height="2.981" transform="translate(-0.774 1.063) rotate(-56.394)" fill="url(#linear-gradient-42)"/>
          </g>
        </g>
        <g id="Group_5612" data-name="Group 5612" transform="translate(187.171 217.921)">
          <g id="Group_5611" data-name="Group 5611" clip-path="url(#clip-path-58)">
            <rect id="Rectangle_4653" data-name="Rectangle 4653" width="2.29" height="3.425" transform="translate(-0.443 0.063) rotate(-8.047)" fill="url(#linear-gradient-43)"/>
          </g>
        </g>
        <g id="Group_5614" data-name="Group 5614" transform="translate(187.603 220.783)">
          <g id="Group_5613" data-name="Group 5613" clip-path="url(#clip-path-59)">
            <rect id="Rectangle_4654" data-name="Rectangle 4654" width="2.216" height="2.453" transform="matrix(0.553, -0.833, 0.833, 0.553, -0.646, 0.873)" fill="url(#linear-gradient-44)"/>
          </g>
        </g>
        <g id="Group_5616" data-name="Group 5616" transform="translate(168.701 222.093)">
          <g id="Group_5615" data-name="Group 5615" clip-path="url(#clip-path-60)">
            <rect id="Rectangle_4655" data-name="Rectangle 4655" width="2.936" height="3" transform="matrix(0.665, -0.747, 0.747, 0.665, -0.968, 0.958)" fill="url(#linear-gradient-45)"/>
          </g>
        </g>
        <g id="Group_5618" data-name="Group 5618" transform="translate(169.833 219.705)">
          <g id="Group_5617" data-name="Group 5617" clip-path="url(#clip-path-61)">
            <rect id="Rectangle_4656" data-name="Rectangle 4656" width="1.463" height="3.052" fill="url(#linear-gradient-46)"/>
          </g>
        </g>
        <g id="Group_5620" data-name="Group 5620" transform="translate(164.163 172.39)">
          <g id="Group_5619" data-name="Group 5619" clip-path="url(#clip-path-62)">
            <rect id="Rectangle_4657" data-name="Rectangle 4657" width="53.475" height="36.858" transform="translate(-12.514 45.858) rotate(-76.089)" fill="url(#linear-gradient-47)"/>
          </g>
        </g>
        <g id="Group_5622" data-name="Group 5622" transform="translate(165.192 149.426)">
          <g id="Group_5621" data-name="Group 5621" clip-path="url(#clip-path-63)">
            <rect id="Rectangle_4658" data-name="Rectangle 4658" width="31.442" height="34.955" transform="matrix(0.917, -0.398, 0.398, 0.917, -10.731, 4.545)" fill="url(#linear-gradient)"/>
          </g>
        </g>
        <g id="Group_5624" data-name="Group 5624" transform="translate(169.849 222.555)">
          <g id="Group_5623" data-name="Group 5623" clip-path="url(#clip-path-64)">
            <rect id="Rectangle_4659" data-name="Rectangle 4659" width="2.346" height="2.394" transform="translate(-0.759 0.773) rotate(-48.347)" fill="url(#linear-gradient-49)"/>
          </g>
        </g>
        <g id="Group_5626" data-name="Group 5626" transform="translate(172.106 141.688)">
          <g id="Group_5625" data-name="Group 5625" clip-path="url(#clip-path-65)">
            <rect id="Rectangle_4660" data-name="Rectangle 4660" width="13.677" height="13.347" transform="translate(-3.914 1.588) rotate(-23.552)" fill="url(#linear-gradient-50)"/>
          </g>
        </g>
        <g id="Group_5628" data-name="Group 5628" transform="translate(0)">
          <g id="Group_5627" data-name="Group 5627" clip-path="url(#clip-path-12)">
            <path id="Path_2556" data-name="Path 2556" d="M2141.015,1686.648a3.359,3.359,0,0,0,.639,2,1.482,1.482,0,0,1,.324.354.509.509,0,0,1,.051.106c.2.563-.7,1.227-.528,1.479.126.183.735-.062.808.1s-.438.457-.361.635c.059.135.37.012.567.218.1.1.069.184.173.5a2.811,2.811,0,0,0,.2.48c.309.525,1.184.717,1.353.506.047-.058.007-.107.054-.3a1.562,1.562,0,0,1,.171-.392,4.081,4.081,0,0,1,1.06-.834,2.9,2.9,0,0,0,1.105-1.259c.024-.06.038-.106.049-.139a3.323,3.323,0,0,0-.083-2.223c-.5-1-1.616-.524-2.533-1.513-1.057-1.14-.427-2.7-1-2.871-.633-.19-2.057,1.506-2.052,3.16" transform="translate(-1965.77 -1545.679)" fill="#26264f"/>
          </g>
        </g>
        <g id="Group_5630" data-name="Group 5630" transform="translate(175.722 144.575)">
          <g id="Group_5629" data-name="Group 5629" clip-path="url(#clip-path-67)">
            <rect id="Rectangle_4662" data-name="Rectangle 4662" width="1.534" height="1.629" transform="matrix(0.917, -0.4, 0.4, 0.917, -0.644, 0.206)" fill="url(#linear-gradient-51)"/>
          </g>
        </g>
        <g id="Group_5632" data-name="Group 5632" transform="translate(0)">
          <g id="Group_5631" data-name="Group 5631" clip-path="url(#clip-path-12)">
            <path id="Path_2558" data-name="Path 2558" d="M2237.61,1982.318a.08.08,0,0,1-.08-.071,12.272,12.272,0,0,1,.6-5.121c.1-.337.187-.656.266-.974.435-1.755.625-2.433.828-3.15.13-.466.266-.947.475-1.751a.082.082,0,0,1,.1-.057.081.081,0,0,1,.057.1c-.21.805-.346,1.287-.476,1.753-.2.716-.392,1.392-.826,3.146-.079.321-.171.641-.267.979a12.146,12.146,0,0,0-.6,5.06.079.079,0,0,1-.07.088h-.009" transform="translate(-2054.323 -1809.846)" fill="#9b305e"/>
            <path id="Path_2559" data-name="Path 2559" d="M2128.229,1759.886l-.509.662s-.548.81-.868.366c-.261-.363-.329-.355-.345-.34s0,.007,0,.007.038-.18.076-.338a2.98,2.98,0,0,0-.435.934,1.652,1.652,0,0,0,.005,1.277,1.271,1.271,0,0,0,.747.584,3.35,3.35,0,0,0,.983-.1s-.869-.63-.882-.78c-.036-.407.528-.627.948-1.461a3.358,3.358,0,0,0,.284-.815" transform="translate(-1951.998 -1615.837)" fill="#26264f"/>
          </g>
        </g>
        <g id="Group_5634" data-name="Group 5634" transform="translate(86.967 79.454)">
          <g id="Group_5633" data-name="Group 5633" clip-path="url(#clip-path-69)">
            <rect id="Rectangle_4664" data-name="Rectangle 4664" width="5.226" height="4.799" transform="matrix(0.239, -0.971, 0.971, 0.239, -1.331, 4.18)" fill="url(#linear-gradient-52)"/>
          </g>
        </g>
        <g id="Group_5636" data-name="Group 5636" transform="translate(73.702 53.016)">
          <g id="Group_5635" data-name="Group 5635" clip-path="url(#clip-path-70)">
            <rect id="Rectangle_4665" data-name="Rectangle 4665" width="31.418" height="34.002" transform="translate(-11.432 5.768) rotate(-27.372)" fill="url(#linear-gradient-53)"/>
          </g>
        </g>
        <g id="Group_5643" data-name="Group 5643" transform="translate(0)">
          <g id="Group_5642" data-name="Group 5642" clip-path="url(#clip-path-12)">
            <g id="Group_5641" data-name="Group 5641" transform="translate(73.702 53.214)" opacity="0.3" style="mix-blend-mode: multiply;isolation: isolate">
              <g id="Group_5640" data-name="Group 5640">
                <g id="Group_5639" data-name="Group 5639" clip-path="url(#clip-path-72)">
                  <g id="Group_5638" data-name="Group 5638" transform="translate(0 0)">
                    <g id="Group_5637" data-name="Group 5637" clip-path="url(#clip-path-73)">
                      <rect id="Rectangle_4666" data-name="Rectangle 4666" width="19.461" height="27.088" transform="translate(-0.291 0)" fill="url(#linear-gradient-54)"/>
                    </g>
                  </g>
                </g>
              </g>
            </g>
          </g>
        </g>
        <g id="Group_5645" data-name="Group 5645" transform="translate(67.755 93.505)">
          <g id="Group_5644" data-name="Group 5644" clip-path="url(#clip-path-74)">
            <rect id="Rectangle_4669" data-name="Rectangle 4669" width="6.783" height="4.697" transform="translate(-1.599 5.686) rotate(-76.167)" fill="url(#linear-gradient-55)"/>
          </g>
        </g>
        <g id="Group_5647" data-name="Group 5647" transform="translate(68.183 91.879)">
          <g id="Group_5646" data-name="Group 5646" clip-path="url(#clip-path-75)">
            <rect id="Rectangle_4670" data-name="Rectangle 4670" width="2.641" height="3.642" transform="translate(-0.691 0.152) rotate(-12.413)" fill="url(#linear-gradient-56)"/>
          </g>
        </g>
        <g id="Group_5649" data-name="Group 5649" transform="translate(65.114 50.424)">
          <g id="Group_5648" data-name="Group 5648" clip-path="url(#clip-path-76)">
            <rect id="Rectangle_4671" data-name="Rectangle 4671" width="34.411" height="45.732" transform="translate(-17.922 9.078) rotate(-27.372)" fill="url(#linear-gradient-57)"/>
          </g>
        </g>
        <g id="Group_5651" data-name="Group 5651" transform="translate(97.639 50.056)">
          <g id="Group_5650" data-name="Group 5650" clip-path="url(#clip-path-77)">
            <rect id="Rectangle_4672" data-name="Rectangle 4672" width="3.858" height="4.761" transform="translate(-0.75 0.051) rotate(-6.135)" fill="url(#linear-gradient-58)"/>
          </g>
        </g>
        <g id="Group_5653" data-name="Group 5653" transform="translate(44.83 15.884)">
          <g id="Group_5652" data-name="Group 5652" clip-path="url(#clip-path-78)">
            <rect id="Rectangle_4673" data-name="Rectangle 4673" width="5.219" height="4.157" transform="translate(-0.611 4.87) rotate(-84.937)" fill="url(#linear-gradient-59)"/>
          </g>
        </g>
        <g id="Group_5655" data-name="Group 5655" transform="translate(74.135 31.222)">
          <g id="Group_5654" data-name="Group 5654" clip-path="url(#clip-path-79)">
            <rect id="Rectangle_4674" data-name="Rectangle 4674" width="33.321" height="32.262" transform="matrix(0.829, -0.56, 0.56, 0.829, -11.263, 6.78)" fill="url(#linear-gradient-60)"/>
          </g>
        </g>
        <g id="Group_5657" data-name="Group 5657" transform="translate(46.41 19.648)">
          <g id="Group_5656" data-name="Group 5656" clip-path="url(#clip-path-80)">
            <rect id="Rectangle_4675" data-name="Rectangle 4675" width="58.87" height="58.34" transform="matrix(0.606, -0.795, 0.795, 0.606, -20.835, 27.34)" fill="url(#linear-gradient-61)"/>
          </g>
        </g>
        <g id="Group_5659" data-name="Group 5659" transform="translate(67.041 28.324)">
          <g id="Group_5658" data-name="Group 5658" clip-path="url(#clip-path-81)">
            <rect id="Rectangle_4676" data-name="Rectangle 4676" width="5.707" height="9.324" transform="translate(-0.619 4.456) rotate(-82.094)" fill="url(#linear-gradient-62)"/>
          </g>
        </g>
        <g id="Group_5661" data-name="Group 5661" transform="translate(68.521 23.554)">
          <g id="Group_5660" data-name="Group 5660" clip-path="url(#clip-path-82)">
            <rect id="Rectangle_4677" data-name="Rectangle 4677" width="7.155" height="7.583" transform="matrix(0.508, -0.862, 0.862, 0.508, -2.138, 3.546)" fill="url(#linear-gradient-63)"/>
          </g>
        </g>
        <g id="Group_5663" data-name="Group 5663" transform="translate(69.763 25.916)">
          <g id="Group_5662" data-name="Group 5662" clip-path="url(#clip-path-83)">
            <rect id="Rectangle_4678" data-name="Rectangle 4678" width="5.227" height="5.042" transform="translate(-1.61 0.861) rotate(-29.647)" fill="url(#linear-gradient-64)"/>
          </g>
        </g>
        <g id="Group_5670" data-name="Group 5670" transform="translate(0)">
          <g id="Group_5669" data-name="Group 5669" clip-path="url(#clip-path-12)">
            <g id="Group_5668" data-name="Group 5668" transform="translate(47.355 26.183)" opacity="0.3" style="mix-blend-mode: multiply;isolation: isolate">
              <g id="Group_5667" data-name="Group 5667">
                <g id="Group_5666" data-name="Group 5666" clip-path="url(#clip-path-85)">
                  <g id="Group_5665" data-name="Group 5665" transform="translate(0 0)">
                    <g id="Group_5664" data-name="Group 5664" clip-path="url(#clip-path-86)">
                      <rect id="Rectangle_4679" data-name="Rectangle 4679" width="44.895" height="42.92" transform="matrix(0.606, -0.795, 0.795, 0.606, -17.62, 23.121)" fill="url(#linear-gradient-65)"/>
                    </g>
                  </g>
                </g>
              </g>
            </g>
          </g>
        </g>
        <g id="Group_5672" data-name="Group 5672" transform="translate(0 0)">
          <g id="Group_5671" data-name="Group 5671" clip-path="url(#clip-path-87)">
            <rect id="Rectangle_4682" data-name="Rectangle 4682" width="49.984" height="55.677" transform="translate(-13.365 26.067) rotate(-63.059)" fill="url(#linear-gradient-66)"/>
          </g>
        </g>
        <g id="Group_5677" data-name="Group 5677" transform="translate(0)">
          <g id="Group_5676" data-name="Group 5676" clip-path="url(#clip-path-12)">
            <g id="Group_5675" data-name="Group 5675" transform="translate(0 5.865)" opacity="0.3" style="mix-blend-mode: soft-light;isolation: isolate">
              <g id="Group_5674" data-name="Group 5674">
                <g id="Group_5673" data-name="Group 5673" clip-path="url(#clip-path-89)">
                  <path id="Path_2575" data-name="Path 2575" d="M34.028,71.746c-5.036,1.042-6.943,8.529-11.3,10.447-2.8,1.138-3.206-1.178-6.774-1.893-2.24-.53-4.734-.561-7.385-1.015A13.092,13.092,0,0,1,1.1,77.262c-.723-.425-1.217-.35-1.075.275l3.6,15.883a2.985,2.985,0,0,0,1.535,1.754C20.985,102,28.24,71,44.071,77.857c-4.372-5.442-7.687-6.584-10.044-6.111" transform="translate(0 -71.649)" fill="#fff"/>
                </g>
              </g>
            </g>
          </g>
        </g>
        <g id="Group_5679" data-name="Group 5679" transform="translate(42.891 1.983)">
          <g id="Group_5678" data-name="Group 5678" clip-path="url(#clip-path-90)">
            <rect id="Rectangle_4685" data-name="Rectangle 4685" width="17.572" height="8.622" transform="translate(-3.974 15.97) rotate(-76.167)" fill="url(#linear-gradient-67)"/>
          </g>
        </g>
      </g>
    </g>
    <g id="Group_5700" data-name="Group 5700" transform="matrix(-0.259, 0.966, -0.966, -0.259, 917.525, 323.164)">
      <g id="Group_5704" data-name="Group 5704" transform="translate(0 0)">
        <g id="Group_5698" data-name="Group 5698" transform="translate(0 0)">
          <g id="Group_5705" data-name="Group 5705">
            <path id="Path_2577" data-name="Path 2577" d="M39.514,17.322,37.338,17.3a16.92,16.92,0,0,0-.768-2.864l1.888-1.069a1.069,1.069,0,0,0,.394-1.466L36.99,8.663a1.09,1.09,0,0,0-1.475-.413L33.6,9.327a17.468,17.468,0,0,0-2.1-2.11l1.11-1.9a1.087,1.087,0,0,0-.4-1.48L28.969,1.922a1.082,1.082,0,0,0-1.487.372L26.365,4.2a17.366,17.366,0,0,0-2.881-.8V1.166A1.112,1.112,0,0,0,22.39.064L18.6,0a1.071,1.071,0,0,0-1.1,1.069V3.306a17.175,17.175,0,0,0-2.906.718L13.466,2.073a1.124,1.124,0,0,0-1.51-.423L8.643,3.483a1.073,1.073,0,0,0-.406,1.486L9.372,6.921A17.1,17.1,0,0,0,7.222,9L5.255,7.86a1.117,1.117,0,0,0-1.522.381L1.806,11.495A1.091,1.091,0,0,0,2.215,13l1.953,1.127a16.746,16.746,0,0,0-.794,2.9L1.118,17A1.1,1.1,0,0,0,0,18.088v3.788a1.115,1.115,0,0,0,1.118,1.1l2.238.012a16.908,16.908,0,0,0,.783,2.924L2.215,27a1.082,1.082,0,0,0-.409,1.5l1.927,3.28a1.126,1.126,0,0,0,1.522.4l1.909-1.082a17.465,17.465,0,0,0,2.169,2.144l-1.1,1.87A1.082,1.082,0,0,0,8.643,36.6l3.313,1.879a1.115,1.115,0,0,0,1.51-.4l1.083-1.853A17.369,17.369,0,0,0,17.5,37v2.139a1.09,1.09,0,0,0,1.1,1.084l3.788-.011a1.093,1.093,0,0,0,1.094-1.088V36.989a17.182,17.182,0,0,0,2.928-.777l1.069,1.838a1.091,1.091,0,0,0,1.487.393l3.248-1.871a1.078,1.078,0,0,0,.4-1.475l-1.072-1.849a17.08,17.08,0,0,0,2.117-2.114l1.857,1.071a1.08,1.08,0,0,0,1.475-.393L38.851,28.6a1.078,1.078,0,0,0-.394-1.471L36.6,26.046a16.745,16.745,0,0,0,.758-2.87l2.159.012a1.068,1.068,0,0,0,1.076-1.069V18.406a1.086,1.086,0,0,0-1.076-1.084M20.5,9.208A11.115,11.115,0,0,1,31.513,20.249,10.932,10.932,0,0,1,20.5,31.138,11.111,11.111,0,0,1,9.362,20.1,10.927,10.927,0,0,1,20.5,9.208" transform="translate(0 0)" fill="#abc"/>
          </g>
        </g>
      </g>
    </g>
    <g id="Group_5702" data-name="Group 5702" transform="translate(482.889 374.93) rotate(90)">
      <g id="Group_5703" data-name="Group 5703">
        <path id="Path_2580" data-name="Path 2580" d="M74.1,32.241l-4.041-.111a30.422,30.422,0,0,0-1.428-5.209l3.507-1.864a1.882,1.882,0,0,0,.732-2.635l-3.457-5.936a2.084,2.084,0,0,0-2.742-.807l-3.559,1.873a33.091,33.091,0,0,0-3.909-3.907l2.067-3.393a1.966,1.966,0,0,0-.739-2.7L54.481,3.945a2.028,2.028,0,0,0-2.776.611L49.619,7.962a33.839,33.839,0,0,0-5.388-1.576V2.336A2.11,2.11,0,0,0,42.182.286L35.082,0A1.927,1.927,0,0,0,33.018,1.9V5.964a32.7,32.7,0,0,0-5.462,1.181l-2.128-3.6a2.189,2.189,0,0,0-2.842-.836l-6.245,3.2A1.9,1.9,0,0,0,15.576,8.6l2.142,3.6a30.792,30.792,0,0,0-4.056,3.706L9.946,13.746a2.13,2.13,0,0,0-2.877.633L3.422,20.241A1.98,1.98,0,0,0,4.2,23l3.7,2.131a29.26,29.26,0,0,0-1.5,5.258l-4.27-.117A2,2,0,0,0,0,32.216v6.921a2.123,2.123,0,0,0,2.119,2.053l4.236.1A30.422,30.422,0,0,0,7.836,46.65L4.2,48.566a1.919,1.919,0,0,0-.774,2.718l3.647,6.046a2.192,2.192,0,0,0,2.877.778l3.607-1.917a33.178,33.178,0,0,0,4.093,3.97L15.576,63.54a1.954,1.954,0,0,0,.766,2.73l6.245,3.511a2.121,2.121,0,0,0,2.842-.693l2.038-3.344a33.862,33.862,0,0,0,5.552,1.486v3.89a2.048,2.048,0,0,0,2.063,2l7.1.074a1.984,1.984,0,0,0,2.048-1.947V67.373a32.6,32.6,0,0,0,5.477-1.333l2,3.362a2.087,2.087,0,0,0,2.776.751l6.055-3.306a1.906,1.906,0,0,0,.739-2.661l-2-3.379a30.719,30.719,0,0,0,3.944-3.768l3.454,1.992a2.021,2.021,0,0,0,2.742-.668L72.874,52.6a1.941,1.941,0,0,0-.732-2.672l-3.455-2.01a29.268,29.268,0,0,0,1.408-5.167l4.009.092a1.916,1.916,0,0,0,2-1.9v-6.71a2.036,2.036,0,0,0-2-2M38.637,16.815c11.413.38,20.587,9.53,20.587,20.441s-9.175,19.6-20.587,19.4c-11.519-.2-20.937-9.353-20.937-20.45s9.418-19.779,20.937-19.4" fill="#d8dee8"/>
      </g>
    </g>
  </g>
</svg>
