<?xml version="1.0" standalone="no"?>
<!DOCTYPE svg PUBLIC "-//W3C//DTD SVG 20010904//EN"
 "http://www.w3.org/TR/2001/REC-SVG-20010904/DTD/svg10.dtd">
<svg version="1.0" xmlns="http://www.w3.org/2000/svg"
 width="123.000000pt" height="123.000000pt" viewBox="0 0 123.000000 123.000000"
 preserveAspectRatio="xMidYMid meet">

<g transform="translate(0.000000,123.000000) scale(0.100000,-0.100000)"
fill="#000000" stroke="none">
<path d="M590 835 c-17 -21 -5 -45 24 -45 28 0 37 17 24 43 -11 21 -31 22 -48
2z"/>
<path d="M538 759 c-28 -11 -28 -12 -28 -99 0 -105 18 -132 22 -35 l3 66 77 2
c59 2 82 6 95 20 16 16 16 18 0 34 -20 20 -128 28 -169 12z m105 -26 c-13 -2
-35 -2 -50 0 -16 2 -5 4 22 4 28 0 40 -2 28 -4z"/>
<path d="M670 681 c-23 -6 -25 -12 -28 -75 -3 -66 -3 -68 20 -61 45 14 58 35
58 92 0 56 -2 57 -50 44z m17 -78 c-2 -16 -4 -5 -4 22 0 28 2 40 4 28 2 -13 2
-35 0 -50z"/>
<path d="M552 613 c2 -42 8 -68 16 -71 8 -2 12 9 13 35 l2 38 6 -35 c8 -45 41
-56 41 -13 0 16 -5 34 -12 41 -9 9 -9 12 0 12 7 0 12 12 12 26 0 34 -31 29
-41 -6 -6 -23 -7 -22 -8 8 -1 22 -6 32 -16 32 -13 0 -15 -12 -13 -67z"/>
<path d="M561 444 c-1 -12 6 -25 15 -28 13 -5 14 -3 7 6 -6 7 -13 20 -16 28
-4 10 -6 8 -6 -6z"/>
<path d="M622 440 c0 -14 2 -19 5 -12 2 6 2 18 0 25 -3 6 -5 1 -5 -13z"/>
<path d="M501 434 c0 -11 3 -14 6 -6 3 7 2 16 -1 19 -3 4 -6 -2 -5 -13z"/>
<path d="M521 434 c0 -11 3 -14 6 -6 3 7 2 16 -1 19 -3 4 -6 -2 -5 -13z"/>
<path d="M541 434 c0 -11 3 -14 6 -6 3 7 2 16 -1 19 -3 4 -6 -2 -5 -13z"/>
</g>
</svg>
